<svg xmlns="http://www.w3.org/2000/svg" width="351.138" height="354.655" viewBox="0 0 351.138 354.655">
  <g id="Pic-3" transform="translate(-27.341 -164.797)">
    <path id="Path_13791" data-name="Path 13791" d="M156.819,157C196.8,87.4,297.2,87.4,337.181,157L404.5,274.2C444.331,343.531,394.281,430,314.324,430H179.676C99.719,430,49.669,343.531,89.5,274.2Z" transform="translate(-40 60)" fill="#daf3f8"/>
    <g id="black-board" transform="translate(-848.57 -234.421)">
      <path id="Path_13703" data-name="Path 13703" d="M1110.611,595.35H965.577a2.974,2.974,0,0,1-2.977-2.977v-84.6a2.975,2.975,0,0,1,2.977-2.977h145.046a2.975,2.975,0,0,1,2.977,2.977v84.608A2.991,2.991,0,0,1,1110.611,595.35Z" transform="translate(-22.021 0)" fill="#f47458"/>
      <path id="Path_13704" data-name="Path 13704" d="M1128.7,613.319H982.8V530.477a2.975,2.975,0,0,1,2.977-2.977h139.962a2.975,2.975,0,0,1,2.977,2.977v82.842Z" transform="translate(-39.673 -19.836)" fill="#13375b"/>
      <rect id="Rectangle_2410" data-name="Rectangle 2410" width="158.292" height="3.242" transform="translate(937.4 592.12)" fill="#b75742"/>
      <rect id="Rectangle_2411" data-name="Rectangle 2411" width="8.881" height="0.845" transform="translate(1030.839 591.275)" fill="#d3e5f4"/>
      <rect id="Rectangle_2412" data-name="Rectangle 2412" width="4.718" height="0.845" transform="translate(1013.544 591.275)" fill="#d3e5f4"/>
      <g id="Group_4379" data-name="Group 4379" transform="translate(990.799 587.92)">
        <rect id="Rectangle_2413" data-name="Rectangle 2413" width="14.356" height="1.425" transform="translate(0.593 1.766)" fill="#e5ad76"/>
        <rect id="Rectangle_2414" data-name="Rectangle 2414" width="15.415" height="1.362" transform="translate(0 2.838)" fill="#f8c48b"/>
        <rect id="Rectangle_2415" data-name="Rectangle 2415" width="15.415" height="1.362" transform="translate(0 0.757)" fill="#f8c48b"/>
        <rect id="Rectangle_2416" data-name="Rectangle 2416" width="15.415" height="0.757" fill="#50bfa5"/>
      </g>
      <text id="Lesson_one_..." data-name="Lesson one ..." transform="translate(956.57 533.421)" fill="#fff" font-size="12" font-family="KristenITC-Regular, Kristen ITC"><tspan x="0" y="0">Lesson one ...</tspan></text>
    </g>
    <g id="teacher" transform="translate(-504.799 -507.896)">
      <path id="Path_13711" data-name="Path 13711" d="M704.92,977.594l.023,1.842.209,4.58-9.017-1.187-.983-1.336-.079-3.481-.3-3.26h5.994Z" transform="translate(-132.426 -136.584)" fill="#ffc0bb"/>
      <path id="Path_13712" data-name="Path 13712" d="M740.9,1565.76a13.141,13.141,0,0,1,0,4.62c-.45,2.591-12.144,64.228-12.144,64.228l6.172.9s20.14-57.242,21.265-61.072,2.361-9.24-1.462-13.409S740.9,1565.76,740.9,1565.76Z" transform="translate(-160.088 -613.045)" fill="#ffc0bb"/>
      <path id="Path_13713" data-name="Path 13713" d="M746.882,1932.525l-7.384-8.912-7.384,3.068,1.849,2.557,8.044,4.045s3.438.691,3.616.642A11.844,11.844,0,0,0,746.882,1932.525Z" transform="translate(-162.826 -909.181)" fill="#ffc0bb"/>
      <path id="Path_13714" data-name="Path 13714" d="M741.932,1945.973l1.6,2.007a1.183,1.183,0,0,1-1.288,1.871l-15.5-5.152a1.045,1.045,0,0,1-.661-1.321l1.076-3.25C736.393,1946.852,740.289,1947.036,741.932,1945.973Z" transform="translate(-157.876 -922.629)" fill="#07085b"/>
      <path id="Path_13715" data-name="Path 13715" d="M621.613,851.952a8.173,8.173,0,0,0-8.245,0c-4.388,2.529-4.388,11.059-2.66,13.1s-.089,4.8,3.369,7.47,8.962,3.643,12.105.53.838-10.059.838-10.059Z" transform="translate(-63.098 -35.679)" fill="#07085b"/>
      <path id="Path_13716" data-name="Path 13716" d="M686.025,1950.624l-8.484-5.3-7.37,4.414,2.559,1.843,8.906,1.3s3.48-.43,3.634-.532A11.859,11.859,0,0,0,686.025,1950.624Z" transform="translate(-112.39 -926.858)" fill="#ffc0bb"/>
      <path id="Path_13717" data-name="Path 13717" d="M645.337,1546.087s1.215,29.372,1.327,34.442,2.7,42.706,3.823,45.974l6.3-.45s4.295-72.866,2.946-79.965S645.337,1546.087,645.337,1546.087Z" transform="translate(-92.169 -599.216)" fill="#ffc0bb"/>
      <path id="Path_13718" data-name="Path 13718" d="M539.672,1430.375c-2.169-.447-2.711.954-4.9.5l.515,3.39c-.294.659-.953,2.421-.953,2.421-2.443,7.094-2.309,6.331-2.066,6.462s2.078-2.492,2.287-2.248-1.05,4.466-.676,4.354,2.01-3.867,2.221-3.726-1.062,4.2-.511,4.339,1.8-4.349,2.191-4.057-1,4.86-.478,4.907c.44.04,2.123-5.031,2.648-6.646a.275.275,0,0,1,.477-.085c2.106,2.635,2.423,2.716,2.658,2.418.168-.212-.916-3.08-1.777-5.822l-1.144-3.341Z" transform="translate(0 -507.495)" fill="#ffc0bb"/>
      <path id="Path_13719" data-name="Path 13719" d="M686.025,1969.972l2.15,1.4a1.184,1.184,0,0,1-.635,2.182H671.214a1.044,1.044,0,0,1-1.043-1.045v-3.424C681.044,1972.555,684.8,1971.5,686.025,1969.972Z" transform="translate(-112.39 -946.207)" fill="#07085b"/>
      <path id="Path_13720" data-name="Path 13720" d="M1023.7,990.471a.262.262,0,0,0,.441.135c1.143-1.141,4.764-4.708,5.12-4.482.423.268-2.735,3.534-2.528,3.952s3.206-2.847,3.612-2.487-2.429,3.244-2.31,3.455,3.129-2.261,3.495-2.193-2.528,3.1-2.457,3.4,2.762-1.129,2.911-.912.284.337-4.856,5.288l-2.107,1.863-2.539.59-1.793-2.576s1.46-9.078,1.8-9.235C1022.821,987.117,1023.054,987.323,1023.7,990.471Z" transform="translate(-397.794 -145.834)" fill="#ffc0bb"/>
      <path id="Path_13721" data-name="Path 13721" d="M616.094,1308.906l5.224,19.374c12.065-.013,30.063-1.133,39-7.106,0,0-11.688-54.435-19.447-68.069l-26.649-1.465s-18.481,25.8-4.987,76.277c0,0,2.307.17,5.989.277Z" transform="translate(-58.762 -362.035)" fill="#09083c"/>
      <path id="Path_13722" data-name="Path 13722" d="M789.3,903.1a2.371,2.371,0,1,0,3.168-1.918A2.658,2.658,0,0,0,789.3,903.1Z" transform="translate(-209.208 -76.581)" fill="#f99893"/>
      <path id="Path_13723" data-name="Path 13723" d="M694.253,970.31s.238,1.849.394,4.085a9.643,9.643,0,0,0,7.336,2.118,9.488,9.488,0,0,0,2.533-.695,11.8,11.8,0,0,1,.184-3.458C705.32,970.579,694.253,970.31,694.253,970.31Z" transform="translate(-131.999 -132.966)" fill="#f99893"/>
      <path id="Path_13724" data-name="Path 13724" d="M795.347,1021.006l25.247,19.162,16.165-16.614s4.836,3.738,4.836,3.669-15.2,23.744-18.928,24.99-27.8-15.562-27.8-15.562Z" transform="translate(-213.922 -174.244)" fill="#fff"/>
      <path id="Path_13725" data-name="Path 13725" d="M673.757,857.836a12.062,12.062,0,0,0,.858-2.057,22.95,22.95,0,0,0,1.04-5.732c.024-.38.069-.757.122-1.134a12.35,12.35,0,1,0-24.569-1.293,2.662,2.662,0,0,0-2.409-.1c-1.442.706-1.9,2.743-1.016,4.549s2.763,2.7,4.205,1.992a2.358,2.358,0,0,0,.541-.369A11.585,11.585,0,0,0,664.4,863.92a11.068,11.068,0,0,0,7.4-3.394,5.484,5.484,0,0,0,.4-.407A10.717,10.717,0,0,0,673.757,857.836Z" transform="translate(-93.796 -22.647)" fill="#ffc0bb"/>
      <path id="Path_13726" data-name="Path 13726" d="M719.633,908.026a1.16,1.16,0,1,1-1.218-1.1A1.162,1.162,0,0,1,719.633,908.026Z" transform="translate(-150.776 -81.354)" fill="#333"/>
      <path id="Path_13727" data-name="Path 13727" d="M770.893,908.026a1.16,1.16,0,1,1-1.218-1.1A1.162,1.162,0,0,1,770.893,908.026Z" transform="translate(-192.513 -81.354)" fill="#333"/>
      <g id="Group_4382" data-name="Group 4382" transform="translate(571.237 824.457)">
        <g id="Group_4381" data-name="Group 4381" transform="translate(0 0)">
          <path id="Path_13728" data-name="Path 13728" d="M743.771,900.934c-.007.375-.011.749,0,1.123s.032.746.068,1.115a7.921,7.921,0,0,0,.179,1.094,2.729,2.729,0,0,0,.417.989.961.961,0,0,0,.083.1c.031.031.057.059.095.1a1.312,1.312,0,0,1,.1.108,1.07,1.07,0,0,1,.093.118,1.252,1.252,0,0,1,.229.557,1.378,1.378,0,0,1-.364,1.1,2.284,2.284,0,0,1-.957.626,3.308,3.308,0,0,1-1.111.181,4.942,4.942,0,0,0,.55-.1,3.152,3.152,0,0,0,.524-.179,2.279,2.279,0,0,0,.871-.636,1.228,1.228,0,0,0,.294-.97,1.077,1.077,0,0,0-.2-.469.9.9,0,0,0-.081-.1,1.1,1.1,0,0,0-.091-.094l-.1-.1a1.085,1.085,0,0,1-.1-.115,2.208,2.208,0,0,1-.277-.518,3.685,3.685,0,0,1-.165-.552,7.08,7.08,0,0,1-.149-1.126A11.993,11.993,0,0,1,743.771,900.934Z" transform="translate(-742.608 -900.934)" fill="#f99893"/>
        </g>
      </g>
      <path id="Path_13729" data-name="Path 13729" d="M584.781,1037.824c.089-.094,3.962-4.234,3.209-12a22.884,22.884,0,0,0-4.5-10.723,9.227,9.227,0,0,0-7.309-3.823c-5.3-.1-13.753-.214-13.753-.214s-10.909-1.2-14.368,3.066-15.166,33.862-15.831,47.993,2.794,30.8,2.794,30.8a37,37,0,0,0,5.587,0c1.729-.267-.4-27.329,1.464-31.729s10.244-25.463,10.776-27.463l2.077,11.028a11.4,11.4,0,0,1-.513,6.071c-1.762,4.756-5.163,13.9-6.532,17.282,0,0,26.191,4.223,39.1-2.177l-.118-.5A88.375,88.375,0,0,1,584.781,1037.824Z" transform="translate(-0.001 -166.025)" fill="#fff"/>
      <g id="Group_4384" data-name="Group 4384" transform="translate(563.395 823.545)">
        <g id="Group_4383" data-name="Group 4383" transform="translate(0 0)">
          <path id="Path_13730" data-name="Path 13730" d="M706.833,897.216a7.161,7.161,0,0,0-1.633-.627,5.165,5.165,0,0,0-1.691-.13,4.372,4.372,0,0,0-.83.157c-.137.035-.27.086-.4.132-.067.023-.131.055-.2.082a2.112,2.112,0,0,0-.2.086,8.692,8.692,0,0,0-1.484.934,4.665,4.665,0,0,1,1.331-1.22,3.973,3.973,0,0,1,.836-.391,3.919,3.919,0,0,1,.908-.194,4.232,4.232,0,0,1,1.822.234,4.648,4.648,0,0,1,.825.388A3.668,3.668,0,0,1,706.833,897.216Z" transform="translate(-700.396 -896.028)" fill="#07085b"/>
        </g>
      </g>
      <g id="Group_4386" data-name="Group 4386" transform="translate(574.507 823.545)">
        <g id="Group_4385" data-name="Group 4385" transform="translate(0 0)">
          <path id="Path_13731" data-name="Path 13731" d="M760.213,897.216a3.673,3.673,0,0,1,.716-.549,4.65,4.65,0,0,1,.825-.388,4.232,4.232,0,0,1,1.822-.234,3.92,3.92,0,0,1,.908.194,3.973,3.973,0,0,1,.836.391,4.665,4.665,0,0,1,1.331,1.22,8.7,8.7,0,0,0-1.484-.934,2.142,2.142,0,0,0-.2-.086c-.067-.026-.13-.058-.2-.082-.135-.046-.267-.1-.4-.132a4.37,4.37,0,0,0-.83-.157,5.165,5.165,0,0,0-1.691.13A7.166,7.166,0,0,0,760.213,897.216Z" transform="translate(-760.213 -896.028)" fill="#07085b"/>
        </g>
      </g>
      <path id="Path_13732" data-name="Path 13732" d="M684.15,1011.038s8.333,10.582,10.106,14.4c0,0,4.891-6.432,5.105-14.1Z" transform="translate(-123.772 -166.128)" fill="#ffc0bb"/>
      <path id="Path_13733" data-name="Path 13733" d="M735.066,1088.565c.225,3.671.367,7.346.447,11.022.05,1.838.063,3.677.087,5.515.007,1.839.01,3.678,0,5.516-.008.92-.019,1.839-.04,2.759s-.03,1.839-.058,2.758c-.065,1.839-.114,3.677-.222,5.514-.195,3.673-.473,7.348-1,10.988l.092-1.376.1-1.374c.055-.917.093-1.835.141-2.752l.037-.688.025-.688.05-1.376.054-1.376.036-1.377c.106-3.671.16-7.344.188-11.017s.044-7.347.051-11.022Z" transform="translate(-164.583 -229.253)" fill="#81caef"/>
      <path id="Path_13734" data-name="Path 13734" d="M644.511,1067.774c-.053.3-.1.594-.158.889s-.12.59-.2.881a11.746,11.746,0,0,1-.55,1.715,14.513,14.513,0,0,0,.408-1.746c.112-.587.191-1.179.268-1.77.14-1.186.216-2.377.249-3.571l.022-.9-.005-.9c.011-.6-.03-1.194-.038-1.792,0-.3-.031-.6-.043-.9l-.045-.9c-.037-.6-.091-1.194-.123-1.794.1.591.182,1.186.269,1.78.06.6.134,1.194.175,1.793l.055.9c.021.3.028.6.034.9l.015.9Z" transform="translate(-90.759 -203.554)" fill="#81caef"/>
      <path id="Path_13735" data-name="Path 13735" d="M681.734,815.149c-2.284-7.862-12.707-8.14-12.707-8.14-16.12,1.12-13.582,15.29-13.049,17.635a2.632,2.632,0,0,1,1.889.33,4.417,4.417,0,0,1,.809.556c1.9-.58,2.474-3.739,3.457-5.261,1.334-2.065,7.211-1,9.441-2.465a5.511,5.511,0,0,0,2.459-3.731c8.6,1.366,8.465,10.472,8.465,10.472a3.212,3.212,0,0,1,.831-.043S683.774,822.173,681.734,815.149Z" transform="translate(-100.454 0)" fill="#07085b"/>
      <path id="Path_13736" data-name="Path 13736" d="M735.894,947.126a3.825,3.825,0,0,1-6.843.075Z" transform="translate(-160.333 -114.089)" fill="#fff"/>
    </g>
    <g id="students" transform="translate(177.178 319.24)">
      <g id="Group_4403" data-name="Group 4403" transform="translate(0 0)">
        <g id="Group_4391" data-name="Group 4391" transform="translate(94.782 32.584)">
          <path id="Path_13745" data-name="Path 13745" d="M2970.813,1622.709l4.6,65.81h-2.3l-7.291-65.1Z" transform="translate(-2917.844 -1550.574)" fill="#07085b"/>
          <path id="Path_13746" data-name="Path 13746" d="M2700.823,1622.709l-4.6,65.81h2.3l7.291-65.1Z" transform="translate(-2696.219 -1550.574)" fill="#07085b"/>
          <path id="Path_13747" data-name="Path 13747" d="M2809.566,1218.314s-36.807-1.09-39.189-.92-4.585,7.829-4.585,7.829-10.752,39.889-10.538,40.986-10.03,26.8-10.03,26.8,8.837-.235,9.228,0,34.175-2.9,34.645-3.213,2.189-6.191,2.268-6.5,2.659-23.2,2.659-23.2l1.33-12.617s5.083-10.825,5.162-10.859,4.771-9.516,5.083-9.987,5.162-5.721,5.318-6.191S2809.566,1218.314,2809.566,1218.314Z" transform="translate(-2736.504 -1217.376)" fill="#57ace5"/>
          <path id="Path_13748" data-name="Path 13748" d="M2809.567,1219.637s-12.689-.376-23.649-.652c4.26,2.506,6.648,9.517,4.875,21.988-1.506,10.6-3.181,22.1-9.854,35.892-3.437,7.1-18.236,3.125-30.366,3.828-2.614,6.783-5.347,13.641-5.347,13.641s8.837-.235,9.228,0,34.175-2.9,34.645-3.213,2.189-6.191,2.268-6.5,2.659-23.2,2.659-23.2l1.33-12.617s5.083-10.825,5.161-10.859,4.771-9.516,5.083-9.987,5.162-5.721,5.317-6.191S2809.567,1219.637,2809.567,1219.637Z" transform="translate(-2736.505 -1218.699)" fill="#57ace5" opacity="0.3" style="mix-blend-mode: multiply;isolation: isolate"/>
          <g id="Group_4390" data-name="Group 4390" transform="translate(1.992 0.986)">
            <g id="Group_4389" data-name="Group 4389">
              <path id="Path_13749" data-name="Path 13749" d="M2707.418,1298.969h0a2.288,2.288,0,0,1,2.125-2.429c3.933-.267,12.438-.876,21.188-1.706,16.769-1.591,22.832-2.893,25-3.574a2.262,2.262,0,0,0,1.517-1.606,87.707,87.707,0,0,0,1.222-11.278c1.1-15.444,2.9-40.911,18.769-54.893a2.283,2.283,0,0,1,3.318.33h0a2.287,2.287,0,0,1-.3,3.109c-14.456,12.694-16.115,36.1-17.227,51.779-.634,8.937-1.025,13.323-2.977,15.364-.941.984-2.694,2.816-28.191,5.266-9.045.869-17.948,1.507-22.015,1.783A2.286,2.286,0,0,1,2707.418,1298.969Zm49.442-8.172Z" transform="translate(-2707.414 -1222.915)" fill="#026eaf"/>
            </g>
          </g>
        </g>
        <path id="Path_13750" data-name="Path 13750" d="M2500.191,1879.474l-1.394,11.215-7.5.583.116-10.4Z" transform="translate(-2432.979 -1729.06)" fill="#ffc0bb"/>
        <g id="Group_4395" data-name="Group 4395" transform="translate(46.071 160.51)">
          <path id="Path_13751" data-name="Path 13751" d="M2423.41,1981.825l20.5.139a.79.79,0,0,0,.8-.79l-.006-.592a.819.819,0,0,0-.818-.8l-20.5-.138a.788.788,0,0,0-.8.789l.005.592A.818.818,0,0,0,2423.41,1981.825Z" transform="translate(-2422.572 -1971.914)" fill="#fff"/>
          <path id="Path_13752" data-name="Path 13752" d="M2443.567,1937.452l.786,6.071c.1.749-.324,1.425-.886,1.421l-19.5-.132a1.45,1.45,0,0,1-1.281-.9,2.6,2.6,0,0,1,.522-2.7c1.724-2.405,7.454-2.956,10.241-5l9.081.062A1.211,1.211,0,0,1,2443.567,1937.452Z" transform="translate(-2422.506 -1936.211)" fill="#ea426e"/>
          <g id="Group_4392" data-name="Group 4392" transform="translate(8.216 0.521)">
            <path id="Path_13753" data-name="Path 13753" d="M2472.814,1942.148h0a.4.4,0,0,0,.106-.494c-.39-.833-1.6-2.865-4.036-2.466a.335.335,0,0,0-.208.394v.006c.024.183.152.3.288.281a3.308,3.308,0,0,1,3.528,2.139A.225.225,0,0,0,2472.814,1942.148Z" transform="translate(-2468.672 -1939.137)" fill="#fff"/>
          </g>
          <g id="Group_4393" data-name="Group 4393" transform="translate(6.198 1.288)">
            <path id="Path_13754" data-name="Path 13754" d="M2461.475,1946.458h0a.4.4,0,0,0,.107-.493c-.39-.833-1.6-2.865-4.035-2.466-.141.023-.234.205-.208.394v.006c.025.183.152.3.288.281a3.309,3.309,0,0,1,3.528,2.139C2461.222,1946.469,2461.358,1946.528,2461.475,1946.458Z" transform="translate(-2457.333 -1943.447)" fill="#fff"/>
          </g>
          <g id="Group_4394" data-name="Group 4394" transform="translate(4.321 2.004)">
            <path id="Path_13755" data-name="Path 13755" d="M2450.928,1950.48h0a.4.4,0,0,0,.106-.494c-.39-.833-1.6-2.865-4.036-2.466-.14.023-.234.205-.208.394v.006c.025.183.152.3.289.281a3.308,3.308,0,0,1,3.528,2.139A.225.225,0,0,0,2450.928,1950.48Z" transform="translate(-2446.786 -1947.47)" fill="#fff"/>
          </g>
          <path id="Path_13756" data-name="Path 13756" d="M2511.057,1960.577c1.493-4.89,4.136-5.413,5.583-5.29l.506,3.9c.1.749-.325,1.425-.886,1.421Z" transform="translate(-2495.298 -1951.88)" fill="#e87b50" opacity="0.3" style="mix-blend-mode: multiply;isolation: isolate"/>
        </g>
        <path id="Path_13757" data-name="Path 13757" d="M2730.2,1357.758l-1.24,12.929,4.927.941,2.713-5.124-.445-6.788-3.832-2.669Z" transform="translate(-2628.348 -1299.607)" fill="#f9b5b2"/>
        <path id="Path_13758" data-name="Path 13758" d="M2740.921,1246.541s-5,13.04-5,20.377a10.186,10.186,0,0,0,6.4,1.252c3.778-.47.6-15.36.744-15.752S2740.921,1246.541,2740.921,1246.541Z" transform="translate(-2634.074 -1208.767)" fill="#f4a640"/>
        <path id="Path_13759" data-name="Path 13759" d="M2555.428,1880.816l-3.318,10.822-7.637.053,1.33-7.9Z" transform="translate(-2476.696 -1730.164)" fill="#ffc0bb"/>
        <path id="Path_13760" data-name="Path 13760" d="M2659.746,1370.447l-9.18,13.874-12.2-2.412-20.712-15.484,3.633-5.384s19.407,11.657,21.058,11.983,6.154-10.216,6.154-10.216Z" transform="translate(-2536.851 -1302.89)" fill="#f9b5b2"/>
        <g id="Group_4399" data-name="Group 4399" transform="translate(55.968 160.711)">
          <path id="Path_13761" data-name="Path 13761" d="M2479.024,1982.953l20.5.138a.788.788,0,0,0,.8-.789l0-.591a.819.819,0,0,0-.819-.8l-20.5-.139a.789.789,0,0,0-.8.789l.005.592A.818.818,0,0,0,2479.024,1982.953Z" transform="translate(-2478.186 -1973.042)" fill="#fff"/>
          <path id="Path_13762" data-name="Path 13762" d="M2499.18,1938.58l.786,6.071c.1.748-.324,1.425-.885,1.421l-19.5-.132a1.449,1.449,0,0,1-1.281-.9,2.593,2.593,0,0,1,.522-2.7c1.724-2.405,7.454-2.956,10.242-5l9.081.061A1.21,1.21,0,0,1,2499.18,1938.58Z" transform="translate(-2478.119 -1937.339)" fill="#f76390"/>
          <g id="Group_4396" data-name="Group 4396" transform="translate(8.216 0.521)">
            <path id="Path_13763" data-name="Path 13763" d="M2528.428,1943.275h0a.4.4,0,0,0,.106-.494c-.39-.833-1.6-2.865-4.035-2.466-.141.023-.234.206-.208.395v.006c.025.183.152.3.288.282a3.308,3.308,0,0,1,3.528,2.139A.225.225,0,0,0,2528.428,1943.275Z" transform="translate(-2524.286 -1940.264)" fill="#fff"/>
          </g>
          <g id="Group_4397" data-name="Group 4397" transform="translate(6.198 1.288)">
            <path id="Path_13764" data-name="Path 13764" d="M2517.088,1947.585h0a.4.4,0,0,0,.106-.494c-.39-.833-1.6-2.865-4.035-2.466-.14.023-.234.206-.208.395v.006c.025.183.152.3.289.282a3.306,3.306,0,0,1,3.527,2.139C2516.835,1947.6,2516.972,1947.655,2517.088,1947.585Z" transform="translate(-2512.947 -1944.574)" fill="#fff"/>
          </g>
          <g id="Group_4398" data-name="Group 4398" transform="translate(4.321 2.003)">
            <path id="Path_13765" data-name="Path 13765" d="M2506.542,1951.607h0a.4.4,0,0,0,.106-.494c-.39-.833-1.6-2.865-4.035-2.466-.14.023-.234.205-.209.394v.006c.025.183.153.3.288.282a3.308,3.308,0,0,1,3.528,2.139C2506.289,1951.618,2506.426,1951.677,2506.542,1951.607Z" transform="translate(-2502.4 -1948.596)" fill="#fff"/>
          </g>
          <path id="Path_13766" data-name="Path 13766" d="M2566.67,1961.7c1.493-4.89,4.136-5.413,5.583-5.29l.506,3.9c.1.748-.324,1.425-.885,1.421Z" transform="translate(-2550.911 -1953.007)" fill="#e87b50" opacity="0.3" style="mix-blend-mode: multiply;isolation: isolate"/>
        </g>
        <path id="Path_13767" data-name="Path 13767" d="M2613.675,1507.525c-1.042-9.718-12.553-9.875-12.553-9.875l-6.192-.539-.15-1.315s-42.695-5.082-48.532,14.283-10.267,57.691-10.267,57.691,5.636,3.429,13.286,0c0,0,10.819-41.151,14.87-45.185s33.167-4.7,33.167-4.7S2614.717,1517.242,2613.675,1507.525Z" transform="translate(-2469.716 -1413.17)" fill="#09083c"/>
        <path id="Path_13768" data-name="Path 13768" d="M2747.852,1260.047s1.007-35.422,2.878-39.5,8.488-4.859,8.488-4.859,17.252-2.563,21.735,1.675c.335.317,8.135,10.668,6.887,59.765,0,0-14.815-8.15-39.988-12.33Z" transform="translate(-2643.881 -1182.776)" fill="#feb546"/>
        <path id="Path_13769" data-name="Path 13769" d="M2827.76,1179.712v8.845a1.265,1.265,0,0,1-.725,1.148c-1.35.633-4.367,1.672-7.184.017a1.254,1.254,0,0,1-.6-1.084v-7.989Z" transform="translate(-2702.57 -1153.831)" fill="#ffc0bb"/>
        <path id="Path_13770" data-name="Path 13770" d="M2827.76,1196v-4.737l-8.514.936v4.019A14.673,14.673,0,0,0,2827.76,1196Z" transform="translate(-2702.57 -1163.331)" fill="#f99893"/>
        <rect id="Rectangle_2428" data-name="Rectangle 2428" width="47.444" height="6.583" transform="translate(14.39 70.845)" fill="#fff"/>
        <rect id="Rectangle_2429" data-name="Rectangle 2429" width="47.444" height="6.583" transform="translate(8.655 64.262)" fill="#70c0fd"/>
        <path id="Path_13771" data-name="Path 13771" d="M2508.5,1503.785s-31.894-1.009-39.141,5.85-2.386,58.48-1.178,63.214c0,0,6.613,3.151,11.847,1.538s3.221-24.206,3.221-24.206-.6-21.584.2-24.61,11.876-5.244,11.876-5.244,17.11-11.9,16.1-11.9S2508.5,1503.785,2508.5,1503.785Z" transform="translate(-2411.747 -1420.188)" fill="#09083c"/>
        <path id="Path_13772" data-name="Path 13772" d="M2582.5,1265.753l-5.1-14.1a.951.951,0,0,0-1.315-.531l-9.652,4.754a1.085,1.085,0,0,0-.514,1.406l8.349,19.17a1.2,1.2,0,0,0,1.517.647l8.466-3.138Z" transform="translate(-2494.248 -1212.453)" fill="#07085b"/>
        <path id="Path_13773" data-name="Path 13773" d="M2608.779,1329.432a.666.666,0,0,1,.02-.11c.237-.918.5-1.031.671-1.029a.789.789,0,0,1,.011-.413c.432-1.312.924-.123.924-.123,1.224,1.822,5.007,3.456,5.007,3.456l1.292.281a29.791,29.791,0,0,1,.712-3.071s2.7,4.9,2.725,4.96a12.068,12.068,0,0,1-1.936,2.889c-.594.661-1.764,2.26-1.838,2.386,0,0-2.8-1.783-3.807-2.659a45.193,45.193,0,0,1-3.714-3.324,1.663,1.663,0,0,1-.416-1.609A1.5,1.5,0,0,1,2608.779,1329.432Z" transform="translate(-2529.167 -1275.124)" fill="#ffc0bb"/>
        <g id="Group_4400" data-name="Group 4400" transform="translate(79.256 53.169)">
          <path id="Path_13774" data-name="Path 13774" d="M2611.084,1339.042a3.144,3.144,0,0,0,.381,1.042,4.805,4.805,0,0,0,.658.9,5.564,5.564,0,0,0,.841.73c.149.11.312.2.467.3s.328.172.494.251c-.3-.213-.6-.418-.886-.651a8.444,8.444,0,0,1-.8-.742,6.58,6.58,0,0,1-.67-.856A4.436,4.436,0,0,1,2611.084,1339.042Z" transform="translate(-2610.709 -1337.975)" fill="#f99893"/>
          <path id="Path_13775" data-name="Path 13775" d="M2608.977,1348.641a3.135,3.135,0,0,0,.462,1.009,4.814,4.814,0,0,0,.727.847,5.556,5.556,0,0,0,.9.662c.157.1.326.176.489.264s.34.145.512.21c-.318-.188-.635-.369-.935-.579a8.267,8.267,0,0,1-.854-.676,6.618,6.618,0,0,1-.736-.8A4.491,4.491,0,0,1,2608.977,1348.641Z" transform="translate(-2608.977 -1345.866)" fill="#f99893"/>
          <path id="Path_13776" data-name="Path 13776" d="M2614.86,1333.049a3.116,3.116,0,0,0,.382,1.042,4.78,4.78,0,0,0,.658.9,5.528,5.528,0,0,0,.841.731c.149.11.312.2.467.3s.328.172.494.251c-.3-.213-.6-.418-.886-.651a8.34,8.34,0,0,1-.8-.742,6.7,6.7,0,0,1-.67-.855A4.465,4.465,0,0,1,2614.86,1333.049Z" transform="translate(-2613.813 -1333.049)" fill="#f99893"/>
        </g>
        <path id="Path_13777" data-name="Path 13777" d="M2695.707,1370.447l-9.181,13.874-12.2-2.412-20.713-15.484,3.633-5.384s19.407,11.657,21.058,11.983,6.153-10.216,6.153-10.216Z" transform="translate(-2566.412 -1302.89)" fill="#ffc0bb"/>
        <path id="Path_13778" data-name="Path 13778" d="M2833.51,1232.923c-1,5.5-3.637,18.246-7.444,24.13,0,0-9.208-.674-14.392-6.97,0,0,7.087-17.509,8.937-21.1,1.486-2.884,8.654-11.458,12.2-2.952A12.221,12.221,0,0,1,2833.51,1232.923Z" transform="translate(-2696.345 -1188.896)" fill="#f4a640"/>
        <g id="Group_4401" data-name="Group 4401" transform="translate(0 77.428)">
          <rect id="Rectangle_2430" data-name="Rectangle 2430" width="3.232" height="88.503" transform="translate(8.655 4.598)" fill="#183658"/>
          <rect id="Rectangle_2431" data-name="Rectangle 2431" width="3.233" height="88.503" transform="translate(39.154 4.598)" fill="#183658"/>
          <rect id="Rectangle_2432" data-name="Rectangle 2432" width="3.233" height="88.503" transform="translate(131.406 4.598)" fill="#183658"/>
          <rect id="Rectangle_2433" data-name="Rectangle 2433" width="3.232" height="88.503" transform="translate(161.906 4.598)" fill="#183658"/>
          <rect id="Rectangle_2434" data-name="Rectangle 2434" width="174.239" height="5.643" rx="2.821" fill="#fee4cb"/>
        </g>
        <g id="Group_4402" data-name="Group 4402" transform="translate(106.695 0)">
          <path id="Path_13779" data-name="Path 13779" d="M2793.157,1052.531s2.945-10.547-2.77-14.816-11.979-4.116-16.338-1.922-7.275,10.418-5.579,15.274l14.319-3.893Z" transform="translate(-2767.123 -1034.285)" fill="#07085b"/>
          <path id="Path_13780" data-name="Path 13780" d="M2767.33,1127.767a2.17,2.17,0,1,1-2.926-1.71A2.432,2.432,0,0,1,2767.33,1127.767Z" transform="translate(-2763.163 -1109.63)" fill="#f99893"/>
          <path id="Path_13781" data-name="Path 13781" d="M2778.169,1082.856a11,11,0,0,1-.814-1.87,21,21,0,0,1-1.032-5.23c-.027-.348-.074-.692-.127-1.036a11.3,11.3,0,1,1,22.464-1.528,2.436,2.436,0,0,1,2.2-.13c1.33.626,1.774,2.483.994,4.148s-2.491,2.508-3.82,1.882a2.164,2.164,0,0,1-.5-.33,10.6,10.6,0,0,1-10.717,9.531,10.131,10.131,0,0,1-6.823-3,4.9,4.9,0,0,1-.375-.367A9.8,9.8,0,0,1,2778.169,1082.856Z" transform="translate(-2773.766 -1056.782)" fill="#ffc0bb"/>
          <path id="Path_13782" data-name="Path 13782" d="M2819.623,1124.379c-.075.645-.131,1.276-.216,1.891a4.237,4.237,0,0,1-.486,1.648l-.054.064a.928.928,0,0,1-.067.08,1.5,1.5,0,0,0-.19.229,1.287,1.287,0,0,0-.217.579,1.339,1.339,0,0,0,.405,1.085,2.177,2.177,0,0,0,1.907.539,2.69,2.69,0,0,1-1.523-.871.863.863,0,0,1-.18-.667.724.724,0,0,1,.135-.3.988.988,0,0,1,.116-.135l.089-.1.1-.118a2.524,2.524,0,0,0,.39-1.007,5.311,5.311,0,0,0,.078-1A6.765,6.765,0,0,0,2819.623,1124.379Z" transform="translate(-2808.558 -1108.345)" fill="#f99893"/>
          <path id="Path_13783" data-name="Path 13783" d="M2845.937,1126.516a.986.986,0,1,0,1.021-.953A.988.988,0,0,0,2845.937,1126.516Z" transform="translate(-2831.206 -1109.318)" fill="#333"/>
          <path id="Path_13784" data-name="Path 13784" d="M2798.258,1127.944a.986.986,0,1,0,1.021-.953A.987.987,0,0,0,2798.258,1127.944Z" transform="translate(-2792.011 -1110.492)" fill="#333"/>
          <path id="Path_13785" data-name="Path 13785" d="M2840.036,1113.351a10.156,10.156,0,0,1,1.466-.227,5,5,0,0,1,1.368.083,4.639,4.639,0,0,1,1.285.458c.22.089.407.241.629.355s.406.286.644.416a4.127,4.127,0,0,0-.382-.693,3.352,3.352,0,0,0-.551-.586,3.182,3.182,0,0,0-1.475-.713,3.323,3.323,0,0,0-1.633.082A3.036,3.036,0,0,0,2840.036,1113.351Z" transform="translate(-2826.355 -1098.48)" fill="#07085b"/>
          <path id="Path_13786" data-name="Path 13786" d="M2790.734,1114.407a3.037,3.037,0,0,0-1.376-.784,3.32,3.32,0,0,0-1.635-.031,3.184,3.184,0,0,0-1.453.758,3.389,3.389,0,0,0-.532.6,4.175,4.175,0,0,0-.36.7c.235-.137.424-.3.631-.435s.4-.278.618-.375a4.615,4.615,0,0,1,1.27-.5,4.976,4.976,0,0,1,1.365-.125A10.119,10.119,0,0,1,2790.734,1114.407Z" transform="translate(-2781.425 -1099.406)" fill="#07085b"/>
          <path id="Path_13787" data-name="Path 13787" d="M2814.516,1061.551a1.719,1.719,0,0,1,1.168-.47l-.144-3.46-.979-2.123s-3.945-5.77-4.086-5.915-3.259-2.091-3.452-2.192-4.7.381-4.7.381-7.8-1.955-6.653,2.228,6.8,6.6,7.108,6.426c-.894-.965-.876-3.6-.876-3.6C2805.782,1057.43,2813.338,1061.011,2814.516,1061.551Z" transform="translate(-2789.791 -1044.996)" fill="#07085b"/>
          <path id="Path_13788" data-name="Path 13788" d="M2809.753,1165.915a2.936,2.936,0,0,0,5.654.37Z" transform="translate(-2801.462 -1142.49)" fill="#fff"/>
        </g>
        <rect id="Rectangle_2435" data-name="Rectangle 2435" width="50.207" height="5.643" rx="2.821" transform="translate(124.032 77.428)" fill="#e0a689" opacity="0.5" style="mix-blend-mode: multiply;isolation: isolate"/>
        <rect id="Rectangle_2436" data-name="Rectangle 2436" width="22.445" height="4.389" transform="translate(10.907 65.281)" fill="#97cef7" style="mix-blend-mode: multiply;isolation: isolate"/>
        <rect id="Rectangle_2437" data-name="Rectangle 2437" width="2.424" height="6.583" transform="translate(49.384 70.845)" fill="#c9eafd"/>
      </g>
    </g>
  </g>
</svg>
