<svg xmlns="http://www.w3.org/2000/svg" width="409.576" height="425.515" viewBox="0 0 409.576 425.515">
  <g id="Pic-2" transform="translate(-15.521 -115.945)">
    <path id="Path_13790" data-name="Path 13790" d="M166.89,156.378c40.01-69.434,140.21-69.434,180.22,0l77.041,133.7C464.1,359.409,414.061,446,334.041,446H179.959c-80.02,0-130.062-86.591-90.11-155.924Z" transform="matrix(0.208, 0.978, -0.978, 0.208, 436.014, 20.112)" fill="#daf3f8"/>
    <g id="Group_3482" data-name="Group 3482" transform="translate(72.061 162.644)">
      <ellipse id="Ellipse_1215" data-name="Ellipse 1215" cx="153.939" cy="7.872" rx="153.939" ry="7.872" transform="translate(0 308.585)" fill="#e6e6e6"/>
      <g id="Mobile" transform="translate(-16.536)">
        <path id="Path_12612" data-name="Path 12612" d="M471.812,154.826h-1.749V106.919a27.727,27.727,0,0,0-27.727-27.727h-101.5a27.727,27.727,0,0,0-27.727,27.727V369.741a27.727,27.727,0,0,0,27.727,27.727h101.5a27.727,27.727,0,0,0,27.727-27.727V188.927h1.749Z" transform="translate(-284.636 -79.191)" fill="#3f3d56"/>
        <path id="Path_12613" data-name="Path 12613" d="M453.3,95.686H440.049a9.838,9.838,0,0,1-9.108,13.553H372.794a9.838,9.838,0,0,1-9.108-13.553H351.312a20.706,20.706,0,0,0-20.706,20.706V378.829a20.706,20.706,0,0,0,20.706,20.706H453.3A20.706,20.706,0,0,0,474,378.829V116.393A20.706,20.706,0,0,0,453.3,95.686Z" transform="translate(-294.48 -88.473)" fill="#fff"/>
      </g>
      <g id="Selection" transform="translate(0.939 14.416)">
        <g id="buttons" transform="translate(43.176 68.795)">
          <circle id="Ellipse_1253" data-name="Ellipse 1253" cx="14.091" cy="14.091" r="14.091" transform="translate(38.896 28.919) rotate(-77.21)" fill="#04d1ef"/>
          <circle id="Ellipse_1254" data-name="Ellipse 1254" cx="14.091" cy="14.091" r="14.091" transform="translate(38.896 28.919) rotate(-77.21)" fill="#fff" opacity="0.2"/>
          <path id="Path_13527" data-name="Path 13527" d="M164.424,136.1a18.247,18.247,0,0,1-16.024-12.79l.521-.165a17.7,17.7,0,0,0,15.546,12.406Z" transform="translate(-110.113 -99.535)" fill="#04d1ef"/>
          <path id="Path_13528" data-name="Path 13528" d="M164.424,136.1a18.247,18.247,0,0,1-16.024-12.79l.521-.165a17.7,17.7,0,0,0,15.546,12.406Z" transform="translate(-110.113 -99.535)" fill="#fff" opacity="0.2"/>
          <path id="Path_13529" data-name="Path 13529" d="M148.759,93.354l-.549-.154a18.324,18.324,0,0,1,23.506-12.077l-.176.521a17.786,17.786,0,0,0-22.808,11.731Z" transform="translate(-110.028 -80.13)" fill="#04d1ef"/>
          <path id="Path_13530" data-name="Path 13530" d="M148.759,93.354l-.549-.154a18.324,18.324,0,0,1,23.506-12.077l-.176.521a17.786,17.786,0,0,0-22.808,11.731Z" transform="translate(-110.028 -80.13)" fill="#fff" opacity="0.2"/>
          <path id="Path_13531" data-name="Path 13531" d="M204.825,95.315a17.731,17.731,0,0,0-7.685-9.842l.285-.472a18.307,18.307,0,0,1,7.916,10.15Z" transform="translate(-132.098 -82.327)" fill="#04d1ef"/>
          <path id="Path_13532" data-name="Path 13532" d="M204.825,95.315a17.731,17.731,0,0,0-7.685-9.842l.285-.472a18.307,18.307,0,0,1,7.916,10.15Z" transform="translate(-132.098 -82.327)" fill="#fff" opacity="0.2"/>
          <circle id="Ellipse_1255" data-name="Ellipse 1255" cx="14.091" cy="14.091" r="14.091" transform="translate(38.903 67.816) rotate(-77.21)" fill="#04d1ef"/>
          <circle id="Ellipse_1256" data-name="Ellipse 1256" cx="14.091" cy="14.091" r="14.091" transform="translate(38.903 67.816) rotate(-77.21)" fill="#fff" opacity="0.6"/>
          <circle id="Ellipse_1257" data-name="Ellipse 1257" cx="14.091" cy="14.091" r="14.091" transform="translate(38.898 106.712) rotate(-77.21)" fill="#04d1ef"/>
          <circle id="Ellipse_1258" data-name="Ellipse 1258" cx="14.091" cy="14.091" r="14.091" transform="translate(38.898 106.712) rotate(-77.21)" fill="#fff" opacity="0.6"/>
          <circle id="Ellipse_1259" data-name="Ellipse 1259" cx="14.091" cy="14.091" r="14.091" transform="translate(38.899 145.615) rotate(-77.21)" fill="#04d1ef"/>
          <circle id="Ellipse_1260" data-name="Ellipse 1260" cx="14.091" cy="14.091" r="14.091" transform="translate(38.899 145.615) rotate(-77.21)" fill="#fff" opacity="0.6"/>
          <circle id="Ellipse_1261" data-name="Ellipse 1261" cx="14.091" cy="14.091" r="14.091" transform="translate(0 28.915) rotate(-77.21)" fill="#04d1ef"/>
          <circle id="Ellipse_1262" data-name="Ellipse 1262" cx="14.091" cy="14.091" r="14.091" transform="translate(0 28.915) rotate(-77.21)" fill="#fff" opacity="0.6"/>
          <circle id="Ellipse_1263" data-name="Ellipse 1263" cx="14.091" cy="14.091" r="14.091" transform="translate(0.006 67.817) rotate(-77.21)" fill="#04d1ef"/>
          <circle id="Ellipse_1264" data-name="Ellipse 1264" cx="14.091" cy="14.091" r="14.091" transform="translate(0.006 67.817) rotate(-77.21)" fill="#fff" opacity="0.6"/>
          <circle id="Ellipse_1265" data-name="Ellipse 1265" cx="14.091" cy="14.091" r="14.091" transform="translate(0.002 106.714) rotate(-77.21)" fill="#04d1ef"/>
          <circle id="Ellipse_1266" data-name="Ellipse 1266" cx="14.091" cy="14.091" r="14.091" transform="translate(0.002 106.714) rotate(-77.21)" fill="#fff" opacity="0.6"/>
          <circle id="Ellipse_1267" data-name="Ellipse 1267" cx="14.091" cy="14.091" r="14.091" transform="translate(0.003 145.611) rotate(-77.21)" fill="#04d1ef"/>
          <circle id="Ellipse_1268" data-name="Ellipse 1268" cx="14.091" cy="14.091" r="14.091" transform="translate(0.003 145.611) rotate(-77.21)" fill="#fff" opacity="0.6"/>
        </g>
        <g id="hand" transform="translate(93.109 78.093)">
          <path id="Path_13533" data-name="Path 13533" d="M267.175,189.363l-2.959-3.063-3.156,4.073s2.4,2.317,5.264,1.647Z" transform="translate(-210.863 -137.318)" fill="#9f5b53"/>
          <path id="Path_13534" data-name="Path 13534" d="M258.29,183.24l-1.35,4.271,2.262,1.482,3.156-4.073Z" transform="translate(-209.005 -135.937)" fill="#9f5b53"/>
          <path id="Path_13535" data-name="Path 13535" d="M179.26,145.266a5.314,5.314,0,0,1,7.488-3.019l-3.294-1.713a5.435,5.435,0,0,1-2.58-6.906,5.325,5.325,0,0,1,7.323-2.591l-3.294-1.707a5.434,5.434,0,0,1-2.58-6.911,5.319,5.319,0,0,1,7.367-2.585l-15.639-8.179a5.413,5.413,0,0,1-2.745-6.461,5.325,5.325,0,0,1,7.493-3.019l32.936,17.22-3.381-13.877a5.66,5.66,0,0,1,10.776-3.376l10.8,28.062a10.594,10.594,0,0,0,4.968,5.572l1.883.983a2.47,2.47,0,0,1,1.043,3.343L224.651,165.27a2.481,2.481,0,0,1-3.343,1.048l-4.622-2.415a10.863,10.863,0,0,0-5.676-1.175,26.349,26.349,0,0,1-13.691-2.964l-15.37-8.036A5.413,5.413,0,0,1,179.26,145.266Z" transform="translate(-170.266 -97.733)" fill="#04d1ef"/>
          <path id="Path_13536" data-name="Path 13536" d="M221.833,166.746a3.294,3.294,0,0,1-1.526-.373l-4.622-2.415a10.161,10.161,0,0,0-5.248-1.1,27.183,27.183,0,0,1-14.119-3.052l-15.37-8.036a6.252,6.252,0,0,1-3.112-7.455,6.11,6.11,0,0,1,3.53-3.733,5.3,5.3,0,0,1,.686-.231,6.241,6.241,0,0,1-2.558-7.74,6.038,6.038,0,0,1,3.585-3.332c.148-.049.3-.1.445-.137a6.236,6.236,0,0,1-2.558-7.74,6.038,6.038,0,0,1,3.585-3.327c.137-.049.28-.093.417-.132L173.022,111.7a6.252,6.252,0,0,1-3.112-7.455,6.148,6.148,0,0,1,8.651-3.486l31.339,16.4-2.959-12.115a6.477,6.477,0,0,1,12.34-3.843l10.8,28.062a9.766,9.766,0,0,0,4.584,5.138l1.877.983a3.294,3.294,0,0,1,1.394,4.452l-13.175,25.174A3.294,3.294,0,0,1,221.833,166.746Zm-10.776-5.539a11.643,11.643,0,0,1,5.391,1.29l4.622,2.415a1.647,1.647,0,0,0,2.234-.7l13.175-25.174a1.647,1.647,0,0,0-.7-2.229l-1.877-.983a11.374,11.374,0,0,1-5.336-5.994l-10.809-28.062a4.831,4.831,0,0,0-9.206,2.882l3.392,13.883a.822.822,0,0,1-1.18.922l-32.936-17.22a4.485,4.485,0,0,0-3.744-.181A4.392,4.392,0,0,0,171.5,104.8a4.6,4.6,0,0,0,2.317,5.489l15.645,8.179a.824.824,0,1,1-.763,1.46,4.49,4.49,0,0,0-3.568-.247,4.43,4.43,0,0,0-2.624,2.432,4.606,4.606,0,0,0,2.2,5.852l3.294,1.713h0a.823.823,0,0,1-.763,1.455h0a4.5,4.5,0,0,0-3.563-.247,4.441,4.441,0,0,0-2.624,2.437,4.606,4.606,0,0,0,2.2,5.846l3.294,1.713h0a.824.824,0,1,1-.763,1.46h0a4.507,4.507,0,0,0-3.744-.176,4.424,4.424,0,0,0-2.58,2.745h0a4.6,4.6,0,0,0,2.317,5.489l15.37,8.036a25.592,25.592,0,0,0,13.213,2.816c.242,0,.478-.038.714-.038ZM178.61,144.6Z" transform="translate(-169.616 -97.069)" fill="#04d1ef"/>
          <path id="Path_13537" data-name="Path 13537" d="M203.1,180.453a.812.812,0,0,1-.384-.093l-4.079-2.146a.824.824,0,1,1,.763-1.46l4.1,2.146a.823.823,0,0,1-.379,1.554Z" transform="translate(-182.507 -132.969)" fill="#04d1ef"/>
          <path id="Path_13538" data-name="Path 13538" d="M205.719,160.013a.8.8,0,0,1-.384-.093l-4.1-2.146a.823.823,0,1,1,.763-1.455l4.1,2.141a.823.823,0,0,1-.379,1.553Z" transform="translate(-183.655 -123.739)" fill="#04d1ef"/>
          <path id="Path_13539" data-name="Path 13539" d="M208.436,139.623a.856.856,0,0,1-.379-.093l-4.1-2.146a.824.824,0,0,1,.763-1.46l4.1,2.146a.823.823,0,0,1-.384,1.553Z" transform="translate(-184.906 -114.552)" fill="#04d1ef"/>
          <path id="Path_13540" data-name="Path 13540" d="M221.833,166.746a3.294,3.294,0,0,1-1.526-.373l-4.622-2.415a10.161,10.161,0,0,0-5.248-1.1,27.183,27.183,0,0,1-14.119-3.052l-15.37-8.036a6.252,6.252,0,0,1-3.112-7.455,6.11,6.11,0,0,1,3.53-3.733,5.3,5.3,0,0,1,.686-.231,6.241,6.241,0,0,1-2.558-7.74,6.038,6.038,0,0,1,3.585-3.332c.148-.049.3-.1.445-.137a6.236,6.236,0,0,1-2.558-7.74,6.038,6.038,0,0,1,3.585-3.327c.137-.049.28-.093.417-.132L173.022,111.7a6.252,6.252,0,0,1-3.112-7.455,6.148,6.148,0,0,1,8.651-3.486l31.339,16.4-2.959-12.115a6.477,6.477,0,0,1,12.34-3.843l10.8,28.062a9.766,9.766,0,0,0,4.584,5.138l1.877.983a3.294,3.294,0,0,1,1.394,4.452l-13.175,25.174A3.294,3.294,0,0,1,221.833,166.746Zm-10.776-5.539a11.643,11.643,0,0,1,5.391,1.29l4.622,2.415a1.647,1.647,0,0,0,2.234-.7l13.175-25.174a1.647,1.647,0,0,0-.7-2.229l-1.877-.983a11.374,11.374,0,0,1-5.336-5.994l-10.809-28.062a4.831,4.831,0,0,0-9.206,2.882l3.392,13.883a.822.822,0,0,1-1.18.922l-32.936-17.22a4.485,4.485,0,0,0-3.744-.181A4.392,4.392,0,0,0,171.5,104.8a4.6,4.6,0,0,0,2.317,5.489l15.645,8.179a.824.824,0,1,1-.763,1.46,4.49,4.49,0,0,0-3.568-.247,4.43,4.43,0,0,0-2.624,2.432,4.606,4.606,0,0,0,2.2,5.852l3.294,1.713h0a.823.823,0,0,1-.763,1.455h0a4.5,4.5,0,0,0-3.563-.247,4.441,4.441,0,0,0-2.624,2.437,4.606,4.606,0,0,0,2.2,5.846l3.294,1.713h0a.824.824,0,1,1-.763,1.46h0a4.507,4.507,0,0,0-3.744-.176,4.424,4.424,0,0,0-2.58,2.745h0a4.6,4.6,0,0,0,2.317,5.489l15.37,8.036a25.592,25.592,0,0,0,13.213,2.816c.242,0,.478-.038.714-.038ZM178.61,144.6Z" transform="translate(-169.616 -97.069)" opacity="0.3"/>
        </g>
      </g>
      <g id="person" transform="translate(-112.441 -49.142)">
        <path id="Path_13486" data-name="Path 13486" d="M352.42,219.53l4.25,6.5,6.32-1.31-4.77-8.08Z" fill="#9f5b53"/>
        <path id="Path_13487" data-name="Path 13487" d="M364.47,163.82c.9,1.09,1.65,2.06,2.42,3.12s1.51,2.08,2.24,3.14c1.46,2.11,2.85,4.28,4.15,6.51s2.56,4.51,3.66,6.9c.59,1.17,1.09,2.41,1.63,3.62a31.026,31.026,0,0,1,1.39,3.79l.32,1,.16.49c.09.29.18.6.24.89a11.4,11.4,0,0,1,.22,3.16,18.1,18.1,0,0,1-1.07,4.85,39,39,0,0,1-3.74,7.42,73.312,73.312,0,0,1-9.72,12L362,217.29a142.327,142.327,0,0,0,6.58-12.64,35.39,35.39,0,0,0,2.17-6.13,9,9,0,0,0,.27-2.42,1.22,1.22,0,0,0-.11-.5h0l-.16-.38-.33-.76a86,86,0,0,0-6.6-12.11c-1.26-2-2.59-3.93-3.93-5.88s-2.8-3.9-4.12-5.67Z" fill="#9f5b53"/>
        <path id="Path_13488" data-name="Path 13488" d="M362,158.9c6.89,1.58,14.79,20.35,14.79,20.35L363,188.73a116.607,116.607,0,0,1-9.14-15.53C349.77,164.61,355,157.29,362,158.9Z" fill="#04d1ef"/>
        <path id="Path_13489" data-name="Path 13489" d="M362,158.9c6.89,1.58,14.79,20.35,14.79,20.35L363,188.73a116.607,116.607,0,0,1-9.14-15.53C349.77,164.61,355,157.29,362,158.9Z" fill="#086a9a"/>
        <path id="Path_13490" data-name="Path 13490" d="M357.1,170.87l6.54,17.41-.65.45s-2.83-4-5.89-9.33Z" fill="#04d1ef"/>
        <path id="Path_13491" data-name="Path 13491" d="M357.1,170.87l6.54,17.41-.65.45s-2.83-4-5.89-9.33Z" fill="#fff" opacity="0.6"/>
        <path id="Path_13492" data-name="Path 13492" d="M339.64,409.64h-7.35l-.73-17.01h7.35Z" fill="#9f5b53"/>
        <path id="Path_13493" data-name="Path 13493" d="M383.75,409.64H376.4l-3.69-17.01h7.34Z" fill="#9f5b53"/>
        <path id="Path_13494" data-name="Path 13494" d="M331.56,392.64l.38,8.76h7.35l-.38-8.76Z" fill="#8a4743"/>
        <path id="Path_13495" data-name="Path 13495" d="M380.06,392.64h-7.35l1.9,8.76h7.35Z" fill="#8a4743"/>
        <path id="Path_13496" data-name="Path 13496" d="M334.38,222.78s8.34,56.14,12.91,77.17c5,23,23.9,99.76,23.9,99.76h13.46S372.19,324.84,369.33,302c-3.1-24.75-9.59-79.26-9.59-79.26Z" fill="#2c2a40"/>
        <path id="Path_13498" data-name="Path 13498" d="M339.65,242.78c9.64,1.89,8.62,37.84,7.46,56.33-2.78-13.07-6.85-38.22-9.63-56.07a3.29,3.29,0,0,1,2.17-.26Z" opacity="0.4"/>
        <path id="Path_13499" data-name="Path 13499" d="M320.44,222.78s-1,54.92-.21,77.33c.83,23.3,9,99.6,9,99.6h12.44s.46-74.94,1-97.82c.6-24.95,3.61-79.11,3.61-79.11Z" fill="#2c2a40"/>
        <path id="Path_13501" data-name="Path 13501" d="M363.59,215.72l-5.37.92,4.77,8.08s3.74-1.8,4.42-5.29Z" fill="#9f5b53"/>
        <path id="Path_13502" data-name="Path 13502" d="M328.1,131.6c0,.59-.31,1.07-.7,1.07s-.7-.48-.7-1.07.31-1.07.7-1.07S328.1,131,328.1,131.6Z" fill="#263238"/>
        <path id="Path_13503" data-name="Path 13503" d="M327.84,132.67a21.33,21.33,0,0,1-2.83,5.07,3.41,3.41,0,0,0,2.83.53Z" fill="#892b29"/>
        <path id="Path_13504" data-name="Path 13504" d="M330.2,128.32a.31.31,0,0,1-.2-.07,2.75,2.75,0,0,0-2.48-.45.348.348,0,0,1-.25-.65,3.42,3.42,0,0,1,3.13.54.33.33,0,0,1,.08.48A.32.32,0,0,1,330.2,128.32Z" fill="#263238"/>
        <path id="Path_13505" data-name="Path 13505" d="M347.23,138.43c-1.06,5.38-2.11,15.22,1.65,18.81,0,0-1.47,5.45-11.46,5.45-11,0-5.24-5.45-5.24-5.45,6-1.43,5.84-5.88,4.79-10.05Z" fill="#9f5b53"/>
        <path id="Path_13506" data-name="Path 13506" d="M350.32,159.11c.79-1.72,1.65-3.7-.14-4.32-2-.68-12.77-1.37-16.49-.1a3.85,3.85,0,0,0-2.67,4.78Z" fill="#2c2a40"/>
        <path id="Path_13507" data-name="Path 13507" d="M373.45,410a2.35,2.35,0,0,1-1.76-.48.7.7,0,0,1,0-.83.81.81,0,0,1,.54-.41c1.08-.24,3.1,1.14,3.19,1.2a.18.18,0,0,1,.07.18.16.16,0,0,1-.13.13,9.343,9.343,0,0,1-1.91.21Zm-.91-1.4h-.22a.47.47,0,0,0-.32.24c-.16.28-.06.4,0,.44.31.42,1.81.42,2.91.24a5.74,5.74,0,0,0-2.37-.9Z" fill="#263238"/>
        <path id="Path_13508" data-name="Path 13508" d="M375.33,409.82h-.08c-.76-.42-2.23-2-2.08-2.84a.57.57,0,0,1,.56-.46,1,1,0,0,1,.74.22c.85.7,1,2.82,1,2.91a.16.16,0,0,1-.08.16A.14.14,0,0,1,375.33,409.82Zm-1.48-3h-.08c-.23,0-.25.14-.26.18-.09.49.85,1.7,1.6,2.27a4.22,4.22,0,0,0-.86-2.3.64.64,0,0,0-.4-.13Z" fill="#263238"/>
        <path id="Path_13509" data-name="Path 13509" d="M329.34,410c-.94,0-1.85-.13-2.16-.55a.67.67,0,0,1,0-.76.84.84,0,0,1,.55-.41c1.21-.33,3.79,1.13,3.9,1.19a.18.18,0,0,1,.08.18.16.16,0,0,1-.14.14,12.08,12.08,0,0,1-2.23.21Zm-1.17-1.42a1.15,1.15,0,0,0-.33,0,.51.51,0,0,0-.34.24c-.12.22-.08.32,0,.38.34.46,2.19.49,3.57.3a7.87,7.87,0,0,0-2.9-.9Z" fill="#263238"/>
        <path id="Path_13510" data-name="Path 13510" d="M331.56,409.82h-.07c-.89-.39-2.64-2-2.51-2.81,0-.2.17-.44.65-.49a1.22,1.22,0,0,1,1,.3c.94.76,1.13,2.74,1.14,2.83a.153.153,0,0,1-.21.17Zm-1.79-3h-.11c-.31,0-.33.16-.34.2-.08.5,1.12,1.75,2,2.29a4,4,0,0,0-1-2.26.87.87,0,0,0-.55-.21Z" fill="#263238"/>
        <path id="Path_13511" data-name="Path 13511" d="M375.88,408.79h8.25a.65.65,0,0,1,.63.51l1.45,6.53a1.08,1.08,0,0,1-1.08,1.3c-2.88-.05-4.28-.22-7.91-.22-2.23,0-6.83.24-9.92.24s-3.48-3-2.22-3.33c5.66-1.24,7.79-2.95,9.61-4.57A1.74,1.74,0,0,1,375.88,408.79Z" fill="#263238"/>
        <path id="Path_13512" data-name="Path 13512" d="M332.34,408.79h8a.65.65,0,0,1,.63.51l1.45,6.53a1.07,1.07,0,0,1-1.06,1.3c-2.89-.05-7.07-.22-10.71-.22-4.25,0-7.93.24-12.92.24-3,0-3.85-3-2.59-3.33,5.75-1.26,10.44-1.39,15.41-4.45A3.36,3.36,0,0,1,332.34,408.79Z" fill="#263238"/>
        <path id="Path_13513" data-name="Path 13513" d="M321.85,173.93c-2.91,4.3-5.92,8.31-9.17,12.29a136.253,136.253,0,0,1-10.4,11.48l-1.44,1.36-.37.34-.25.23-.37.32a11,11,0,0,1-1.51,1,13.43,13.43,0,0,1-5.45,1.52,30.281,30.281,0,0,1-8.66-.71,65.721,65.721,0,0,1-14.85-5.22l1.83-5.2a117.1,117.1,0,0,0,14.19,1.93,25.639,25.639,0,0,0,6.27-.26,4,4,0,0,0,1.66-.64v-.07h0l.07-.08.3-.33,1.18-1.3c3.13-3.57,6.16-7.36,9.1-11.25s5.88-7.85,8.69-11.74Z" fill="#9f5b53"/>
        <path id="Path_13514" data-name="Path 13514" d="M325.24,175.08a34.86,34.86,0,0,1-7.76,16.82c-.16-3.52-.22-6.68-.21-9.51Z" fill="#bed3fc"/>
        <path id="Path_13515" data-name="Path 13515" d="M347.86,130.34c-.44,7.28-.33,11.56-4,15.3-5.53,5.62-14.51,2.28-16.25-5-1.56-6.54-.57-17.34,6.56-20.24a9.94,9.94,0,0,1,13.69,9.94Z" fill="#9f5b53"/>
        <path id="Path_13516" data-name="Path 13516" d="M333.72,125.5c.06,8.56,2.84,19.06,11.12,18.33,5.5-.48,9.68-10.51,10.25-14.76.87-6.5,1-7.74-2.66-8.49,1.6-.87,2.18-5-1.56-6-5.2-1.37-15-2.71-11.92-5.88-6.14,1.11-7.68,3.57-6.56,6.56-3.59-.28-5.8-2.16-5.69-5C320.75,112.67,316.89,126.3,333.72,125.5Z" fill="#263238"/>
        <path id="Path_13517" data-name="Path 13517" d="M338,132.46a8.22,8.22,0,0,1-2.78,4.5c-1.85,1.5-3.33.16-3.29-2,0-1.95,1.06-5.08,3.14-5.74S338.51,130.33,338,132.46Z" fill="#9f5b53"/>
        <path id="Path_13518" data-name="Path 13518" d="M358,122.07a7,7,0,0,0-6.63-.48S355.53,116,358,122.07Z" fill="#263238"/>
        <path id="Path_13519" data-name="Path 13519" d="M369,394.75c-.06,0,1.39,5.17,1.39,5.17h15.14l-.28-4.61Z" fill="#b0b1ca"/>
        <path id="Path_13520" data-name="Path 13520" d="M326.81,394.75c-.06,0,.7,5.17.7,5.17h15.14l.41-4.61Z" fill="#b0b1ca"/>
        <path id="Path_13521" data-name="Path 13521" d="M331.79,390.77a.12.12,0,0,1-.12-.11c-2.2-21.12-7.37-72.22-8-90.55-.67-18.71-.06-60.69.14-73.11,0-.07.06-.11.13-.12a.13.13,0,0,1,.12.12c-.2,12.42-.81,54.4-.14,73.1.65,18.33,5.82,69.41,8,90.53a.14.14,0,0,1-.12.14Z" fill="#04d1ef"/>
        <path id="Path_13522" data-name="Path 13522" d="M331.79,390.77a.12.12,0,0,1-.12-.11c-2.2-21.12-7.37-72.22-8-90.55-.67-18.71-.06-60.69.14-73.11,0-.07.06-.11.13-.12a.13.13,0,0,1,.12.12c-.2,12.42-.81,54.4-.14,73.1.65,18.33,5.82,69.41,8,90.53a.14.14,0,0,1-.12.14Z" opacity="0.3"/>
        <path id="Path_13523" data-name="Path 13523" d="M328.63,165.23c1,7-12.74,24.73-12.74,24.73l-13.77-9.48s3.82-9.79,10.25-16.21C319.71,157,327.57,157.66,328.63,165.23Z" fill="#04d1ef"/>
        <path id="Path_13524" data-name="Path 13524" d="M328.63,165.23c1,7-12.74,24.73-12.74,24.73l-13.77-9.48s3.82-9.79,10.25-16.21C319.71,157,327.57,157.66,328.63,165.23Z" fill="#086a9a"/>
        <path id="Path_13525" data-name="Path 13525" d="M320.88,159.28s-7.82,8.83-.44,63.5h39.3c.27-6-3.52-35.46,2.29-63.88a102.558,102.558,0,0,0-13.15-1.66,145.268,145.268,0,0,0-16.7,0,73.5,73.5,0,0,0-11.3,2.04Z" fill="#04d1ef"/>
        <path id="Path_13526" data-name="Path 13526" d="M320.88,159.28s-7.82,8.83-.44,63.5h39.3c.27-6-3.52-35.46,2.29-63.88a102.558,102.558,0,0,0-13.15-1.66,145.268,145.268,0,0,0-16.7,0,73.5,73.5,0,0,0-11.3,2.04Z" fill="#007bb0"/>
      </g>
      <text id="OFFERS" transform="translate(90.939 52.356)" font-size="14" font-family="ArialRoundedMTBold, Arial Rounded MT" letter-spacing="0.25em" opacity="0.4"><tspan x="-37.123" y="0">OFFERS</tspan></text>
    </g>
  </g>
</svg>
