<svg xmlns="http://www.w3.org/2000/svg" width="412.695" height="431.791" viewBox="0 0 412.695 431.791">
  <g id="Pic-1" transform="translate(3.758 -106.273)">
    <path id="Path_13789" data-name="Path 13789" d="M175.871,156.539c40-69.477,140.256-69.477,180.257,0l86.115,149.568C482.163,375.441,432.119,462,352.115,462H179.885c-80,0-130.048-86.559-90.129-155.892Z" transform="translate(-118.751 540.589) rotate(-81)" fill="#daf3f8"/>
    <g id="happy-students" transform="translate(-16.2 126.419)">
      <g id="Group_4293" data-name="Group 4293" transform="translate(36.2 97.371)">
        <path id="Path_13323" data-name="Path 13323" d="M236.3,121.465s1.686-11.091,6.566-10.647c1.331.089,2.218,1.508,2.839,2.928a1.049,1.049,0,0,0,1.952-.089c1.242-4.525,3.9-11.357,7.985-11.357,4.17,0,4.348,7.9,4.081,12.6a.727.727,0,0,0,1.331.444c1.153-1.6,2.75-3.194,4.7-2.75,3.815.887,2.839,8.784,2.839,8.784H236.3Z" transform="translate(-58.761 -102.3)" fill="#2c2a40" opacity="0.1"/>
        <path id="Path_13324" data-name="Path 13324" d="M36.2,238.765s1.686-11.091,6.566-10.647c1.331.089,2.218,1.508,2.839,2.928a1.049,1.049,0,0,0,1.952-.089c1.242-4.525,3.9-11.357,7.985-11.357,4.17,0,4.348,7.9,4.081,12.6a.727.727,0,0,0,1.331.444c1.153-1.6,2.75-3.194,4.7-2.75,3.815.887,2.839,8.784,2.839,8.784H36.2Z" transform="translate(-36.2 -115.525)" fill="#2c2a40" opacity="0.1"/>
        <path id="Path_13325" data-name="Path 13325" d="M421.2,188.865s1.686-11.091,6.566-10.647c1.331.089,2.218,1.508,2.839,2.928a1.049,1.049,0,0,0,1.952-.089c1.242-4.525,3.9-11.357,7.985-11.357,4.17,0,4.348,7.9,4.081,12.6a.727.727,0,0,0,1.331.444c1.153-1.6,2.75-3.194,4.7-2.75,3.815.887,2.839,8.784,2.839,8.784H421.2Z" transform="translate(-79.608 -109.899)" fill="#2c2a40" opacity="0.1"/>
      </g>
      <g id="Group_4310" data-name="Group 4310" transform="translate(201.118 103.038)">
        <g id="Group_4295" data-name="Group 4295" transform="translate(0 86.695)">
          <g id="Group_4294" data-name="Group 4294" transform="translate(17.945)">
            <path id="Path_13326" data-name="Path 13326" d="M298.463,221.749a44.544,44.544,0,0,1-12.333,7.187s-4.17,2.662-9.582,5.678h0c-6.3,3.638-11.179,5.945-15.882,7.275a75.293,75.293,0,0,0-10.026,3.549,8.244,8.244,0,0,0-.887.444h0c-2.573,1.153-4.17,2.041-4.17,2.041L242.3,240.2s5.945-5.856,9.4-8.784c4.348-3.638,12.244-11.357,21.383-14.64h0a19.265,19.265,0,0,1,2.129-.621s7.453-5.146,12.865-7.985a16.42,16.42,0,0,1,4.348-1.775C292.518,206.311,301.214,214.3,298.463,221.749Z" transform="translate(-242.3 -206.399)" fill="#f9b587"/>
            <path id="Path_13327" data-name="Path 13327" d="M281.98,221.648s-3.105-3.46-4.88-3.726h0a19.268,19.268,0,0,1,2.129-.621S281.714,219.784,281.98,221.648Z" transform="translate(-246.224 -207.628)" fill="#f39568"/>
            <path id="Path_13328" data-name="Path 13328" d="M302.815,221.749a44.544,44.544,0,0,1-12.333,7.187s-4.17,2.662-9.582,5.678c3.726-2.662,9.582-8.34,14.107-12.155,3.105-2.662,1.42-6.033.089-9.139-.532-1.331-1.863-3.638-2.484-5.057,0-.089-.089-.089-.177-.089a16.419,16.419,0,0,1,4.348-1.775C296.871,206.311,305.566,214.3,302.815,221.749Z" transform="translate(-246.652 -206.399)" fill="#f39568"/>
          </g>
          <path id="Path_13329" data-name="Path 13329" d="M247.206,247.117l.976,9.227a3.056,3.056,0,0,1-.976,2.573l-5.412,4.969a1.556,1.556,0,0,1-2.218-.089h0a1.6,1.6,0,0,1-.177-1.952l3.993-5.856-.71-1.775-2.307,3.549-1.863,3.46-.976,5.412a1.419,1.419,0,0,1-1.686,1.153h0a1.364,1.364,0,0,1-1.065-1.508l.532-6.566.8-4.791-1.952,4.88-2.129,8.074a1.446,1.446,0,0,1-1.153.976h0a1.332,1.332,0,0,1-1.508-1.42l.444-7.1,1.42-5.057-4.259,7.1-2.307,4.969a1.2,1.2,0,0,1-1.42.621h0a1.234,1.234,0,0,1-.8-1.508l1.775-5.856,3.017-5.767-2.928,4.525-.8,1.775a.746.746,0,0,1-.976.355h0a.72.72,0,0,1-.444-.8l.444-2.041,2.041-4.259L240.108,244.1C240.108,244.366,242.77,243.479,247.206,247.117Z" transform="translate(-222.074 -210.65)" fill="#f9b587"/>
          <path id="Path_13330" data-name="Path 13330" d="M251.139,250.094a5.268,5.268,0,0,0-.71.355h0a5.649,5.649,0,0,0-2.129-2.75C248.389,247.61,249.808,248.054,251.139,250.094Z" transform="translate(-225.031 -211.054)" fill="#f39568"/>
        </g>
        <path id="Path_13331" data-name="Path 13331" d="M404.79,223.735a3.078,3.078,0,0,1-1.775,1.331c.621,9.4.355,17.479-1.065,21.117-4.348,11.268-41.523,16.769-50.485,8.606s-13.752-62.019-1.775-70.537c8.961-6.388,27.86-7.364,36.821-7.453a9.166,9.166,0,0,1,8.606,5.678c2.218,5.59,4.259,14.462,5.767,23.867a6.029,6.029,0,0,1,1.686.266C404.435,207.232,405.677,221.961,404.79,223.735Z" transform="translate(-235.657 -116.366)" fill="#2c2a40"/>
        <g id="Group_4296" data-name="Group 4296" transform="translate(65.965 200.974)">
          <path id="Path_13332" data-name="Path 13332" d="M331.36,352.69a10.519,10.519,0,0,0,1.863,3.9s-3.9,1.6-7.542,3.105c-2.75,1.153-7.364,1.775-10.292,2.928a9.179,9.179,0,0,0-1.863.976c-.089.089-.266.177-.355.266-1.6,1.508-10.2,5.057-12.865,5.767a1.732,1.732,0,0,1-.621.089,3.245,3.245,0,0,1-2.662-1.42h0c-.621-.976-.887-2.573-.177-5.057.621-2.4,2.662-5.324,4.7-7.808a32.177,32.177,0,0,1,8.784-7.453,81,81,0,0,0,7.9-5.057c2.484-2.75,4.7-5.856,8.163-7.187a8.982,8.982,0,0,1,3.194-.444,32.814,32.814,0,0,1,8.163,1.6S329.408,344.7,331.36,352.69Z" transform="translate(-296.422 -335.211)" fill="#b0b1ca"/>
          <path id="Path_13333" data-name="Path 13333" d="M329.678,335.2c-1.686,1.242-4.348,3.372-5.5,5.324-1.686,2.928-8.251,6.033-11.091,7.9s-13.841,10.47-14.906,15.172c-.976,4.081.976,5.678,2.129,6.033a1.733,1.733,0,0,1-.621.089c-1.508,0-4.259-1.242-2.839-6.566.621-2.4,2.662-5.324,4.7-7.808a32.176,32.176,0,0,1,8.784-7.453,80.974,80.974,0,0,0,7.9-5.057c2.484-2.75,4.7-5.856,8.163-7.187A9.2,9.2,0,0,1,329.678,335.2Z" transform="translate(-296.426 -335.2)" fill="#2c2a40"/>
          <path id="Path_13334" data-name="Path 13334" d="M333.3,358.9s-3.9,1.6-7.542,3.105c-2.75,1.153-7.364,1.775-10.292,2.928a9.179,9.179,0,0,0-1.863.976c-.089.089-.266.177-.355.266-1.6,1.508-10.2,5.057-12.865,5.767a1.732,1.732,0,0,1-.621.089,3.245,3.245,0,0,1-2.662-1.42h0s5.59-1.242,8.518-3.105c1.863-1.242,4.436-3.105,6.921-4.436a28.307,28.307,0,0,0-2.573-4.081,31.044,31.044,0,0,1,3.815,3.46,8.915,8.915,0,0,1,2.662-.8c2.839-.266,11.889-3.283,15.083-6.654A11.654,11.654,0,0,0,333.3,358.9Z" transform="translate(-296.499 -337.432)" fill="#2c2a40" opacity="0.2"/>
        </g>
        <g id="Group_4297" data-name="Group 4297" transform="translate(60.195 179.668)">
          <path id="Path_13335" data-name="Path 13335" d="M311.462,324.425c-.089,4.348.887,7.985.71,9.494-.266,2.75-4.969,8.34-4.969,8.34a16.044,16.044,0,0,1-6.211,10.026H300.9l-.089.089a7.088,7.088,0,0,1-6.477,1.153,6.118,6.118,0,0,1-.71-.266c-4.259-2.041-5.59-16.858,0-22.8,5.412-5.767,7.719-17.479,13.131-18.81s8.163,1.065,8.163,1.065c-.177.177-.266.444-.444.621A22.74,22.74,0,0,0,311.462,324.425Z" transform="translate(-289.919 -311.193)" fill="#b0b1ca"/>
          <path id="Path_13336" data-name="Path 13336" d="M314.923,312.618c-.177.177-.266.444-.444.621-.532-.177-5.59-1.952-8.784,0-3.283,2.129-5.146,10.115-6.921,12.333s-7.187,10.2-7.364,13.309-.887,10.913,2.129,13.131c2.839,2.129,6.211.887,7.275.266a7.037,7.037,0,0,1-7.187.887c-4.259-2.041-5.59-16.858,0-22.8,5.412-5.767,7.719-17.479,13.131-18.81C312.172,310.311,314.923,312.618,314.923,312.618Z" transform="translate(-289.919 -311.186)" fill="#2c2a40"/>
          <path id="Path_13337" data-name="Path 13337" d="M312.734,335.594c-.266,2.573-4.259,7.453-4.88,8.251l-.089.089h0a16.044,16.044,0,0,1-6.211,10.026h-.089l-.089.089A7.088,7.088,0,0,1,294.9,355.2a4.676,4.676,0,0,1,1.331-.444c3.815-.8,7.1-6.122,7.808-8.961a8.768,8.768,0,0,1,1.775-3.105,10.742,10.742,0,0,0-4.436-1.6s1.775-.621,4.969.8c1.952-2.484,4.436-5.146,4.7-6.3.444-1.863.8-9.494.8-9.494C311.935,330.536,312.911,334.085,312.734,335.594Z" transform="translate(-290.48 -312.868)" fill="#2c2a40" opacity="0.2"/>
        </g>
        <g id="Group_4299" data-name="Group 4299" transform="translate(169.685 0.905)">
          <path id="Path_13338" data-name="Path 13338" d="M437.436,151.272l-10.913,6.122-11.091,6.122s-4.436-10.026-.444-16.325c0,0,.887-.532,2.307-1.242.976-.532,2.218-1.153,3.46-1.686a21.678,21.678,0,0,1,2.129-.887,64.429,64.429,0,0,1,2.928-7.719,7.973,7.973,0,0,0,.976-4.525,2.5,2.5,0,0,0-.355-1.153A53.272,53.272,0,0,0,435.4,124.3C435.484,124.3,442.493,140.359,437.436,151.272Z" transform="translate(-413.322 -111.352)" fill="#f9b587"/>
          <path id="Path_13339" data-name="Path 13339" d="M429.419,150.236a7.388,7.388,0,0,1-7.719-3.549,21.678,21.678,0,0,1,2.129-.887C423.829,145.889,425.959,149.7,429.419,150.236Z" transform="translate(-414.267 -113.776)" fill="#f39568"/>
          <path id="Path_13340" data-name="Path 13340" d="M426.523,160.146l-11.091,6.122s-4.436-10.026-.444-16.325c0,0,.887-.532,2.307-1.242,0,0,.089,8.518,1.331,10.647C419.691,161.565,423.595,160.855,426.523,160.146Z" transform="translate(-413.322 -114.103)" fill="#f39568"/>
          <g id="Group_4298" data-name="Group 4298" transform="translate(2.907)">
            <path id="Path_13341" data-name="Path 13341" d="M435.853,122.655a53.881,53.881,0,0,1-7.9,5.945c-.266.177-.71,0-1.065-.355a12.734,12.734,0,0,1-4.348-.532c-.8-.355-.8-1.42-.532-2.573-1.863-.444-5.5-3.283-5.412-6.033.089-2.928,3.194-3.194,3.194-3.194a2.735,2.735,0,0,1,3.283-2.839c.177-1.508,2.839-2.129,2.839-2.129.266-1.242,2.041-1.508,3.105-.976s7.187,7.63,7.453,8.961A13.773,13.773,0,0,1,435.853,122.655Z" transform="translate(-416.598 -109.707)" fill="#f9b587"/>
            <path id="Path_13342" data-name="Path 13342" d="M427.054,124.206c.444,1.686-.976,1.952-.976,1.952.266-.177.266-.976.177-1.6a3.425,3.425,0,0,0-.177-.976h0a2.3,2.3,0,0,0-1.242-1.508,2.21,2.21,0,0,0-1.863-.177l-2.573-3.46a19.828,19.828,0,0,1,3.105,2.662,3.3,3.3,0,0,1,3.372,2.484,1.2,1.2,0,0,0,1.153-.887,3.142,3.142,0,0,0-.444-2.4l-3.549-4.7s4.791,4.525,4.969,6.211C429.1,124.3,427.054,124.206,427.054,124.206Z" transform="translate(-417.027 -110.371)" fill="#f39568"/>
            <path id="Path_13343" data-name="Path 13343" d="M428.5,114a41.947,41.947,0,0,1,3.549,4.791,1.9,1.9,0,0,1-1.065,2.484,1.818,1.818,0,0,1-1.331-.177v1.153s3.194.532,3.194-2.484C432.848,118.259,428.5,114,428.5,114Z" transform="translate(-417.94 -110.191)" fill="#f39568"/>
            <path id="Path_13344" data-name="Path 13344" d="M433.2,119.565a1.967,1.967,0,0,0,1.686.444c.887-.266,1.153-.887.887-1.508a1.1,1.1,0,0,1,.089,1.331c-.621,1.065-2.218.887-2.662.71Z" transform="translate(-418.47 -110.698)" fill="#f39568"/>
          </g>
          <path id="Path_13345" data-name="Path 13345" d="M432,130.1a3.656,3.656,0,0,1-3.549,1.686,2.5,2.5,0,0,0-.355-1.153A9.884,9.884,0,0,0,432,130.1Z" transform="translate(-414.988 -112.006)" fill="#f39568"/>
        </g>
        <path id="Path_13346" data-name="Path 13346" d="M391.154,289.625s-3.194-7.009-2.662-11.091c.621-3.993,6.033,2.307,6.743,3.993S394.881,288.915,391.154,289.625Z" transform="translate(-240.831 -127.69)" fill="#6c8c31"/>
        <path id="Path_13347" data-name="Path 13347" d="M344.316,337.521A26.04,26.04,0,0,1,335,339.828a19.875,19.875,0,0,1,6.388-2.928A13.355,13.355,0,0,1,344.316,337.521Z" transform="translate(-234.807 -134.417)" fill="#2c2a40"/>
        <g id="Group_4305" data-name="Group 4305" transform="translate(70.343 138.028)">
          <path id="Path_13348" data-name="Path 13348" d="M358.01,312.8c-.621,2.75.089,6.122-1.863,12.333-1.42,4.259-5.767,7.63-10.647,9.671,4.348,1.242,8.961,2.307,8.961,2.307,7.542-.266,21.738,2.839,21.738,2.839A72.173,72.173,0,0,1,358.01,312.8Z" transform="translate(-306.333 -269.728)" fill="none"/>
          <path id="Path_13349" data-name="Path 13349" d="M403.163,345.124c-.621-12.688-21.472-44.984-24.754-69.561l-13.131-4.7c-1.775-.532-.976-.177-3.017-.8,0,0-30.965-15.971-44.806,5.057a23.579,23.579,0,0,0,2.484,15.349c1.775,3.283,3.105,13.4,1.775,15.438a29.1,29.1,0,0,0-5.5,1.42c-2.307.8-5.945,2.307-8.34,3.283a10.59,10.59,0,0,0-6.211,7.1,9.694,9.694,0,0,0,.266,5.678c2.307,6.743,8.163,7.453,11.978,6.832a98.128,98.128,0,0,1,14.551,1.153,12.568,12.568,0,0,0,2.662.177,9.1,9.1,0,0,0-3.815,5.5c-1.331,6.388,4.88,11.091,4.88,11.091s.621,1.331,5.59,1.065,4.969-1.6,9.05,0c4.081,1.686,32.828,13.486,42.322,13.93C398.727,363.667,403.784,357.811,403.163,345.124ZM349.4,331.549s-4.614-1.065-8.961-2.307c4.791-2.041,9.227-5.5,10.647-9.671,2.041-6.211,1.242-9.582,1.863-12.333a72.173,72.173,0,0,0,18.189,27.15S356.937,331.371,349.4,331.549Z" transform="translate(-301.356 -264.255)" fill="#2c2a40"/>
          <g id="Group_4301" data-name="Group 4301" transform="translate(2.346 8.824)">
            <g id="Group_4300" data-name="Group 4300">
              <path id="Path_13350" data-name="Path 13350" d="M319.231,316.166l-1.331.266.177.621,1.331-.266,1.331-.266-.177-.621Z" transform="translate(-305.567 -278.902)" fill="#5b5b6c"/>
              <path id="Path_13351" data-name="Path 13351" d="M304,321.331l.355.621,2.4-1.331-.266-.621C305.6,320.444,304.8,320.887,304,321.331Z" transform="translate(-304 -279.364)" fill="#5b5b6c"/>
              <path id="Path_13352" data-name="Path 13352" d="M313.1,317.621l.177.621c.8-.177,1.686-.444,2.662-.621l-.177-.621A16.905,16.905,0,0,0,313.1,317.621Z" transform="translate(-305.026 -279.026)" fill="#5b5b6c"/>
              <path id="Path_13353" data-name="Path 13353" d="M329.177,305.05h.71c-.089-.887-.177-1.863-.266-2.75l-.621.089C329,303.276,329.089,304.163,329.177,305.05Z" transform="translate(-306.819 -277.368)" fill="#5b5b6c"/>
              <path id="Path_13354" data-name="Path 13354" d="M322.9,274.2h-.71c-.089.887-.089,1.863-.089,2.75h.71C322.81,276.063,322.81,275.176,322.9,274.2Z" transform="translate(-306.041 -274.2)" fill="#5b5b6c"/>
              <path id="Path_13355" data-name="Path 13355" d="M328.521,300.239l.621-.089a24.976,24.976,0,0,0-.621-2.75l-.621.177C328.166,298.465,328.344,299.352,328.521,300.239Z" transform="translate(-306.695 -276.816)" fill="#5b5b6c"/>
              <path id="Path_13356" data-name="Path 13356" d="M308.3,319.087l.266.621a14.445,14.445,0,0,1,2.573-.887l-.177-.621C309.986,318.466,309.1,318.821,308.3,319.087Z" transform="translate(-304.485 -279.161)" fill="#5b5b6c"/>
              <path id="Path_13357" data-name="Path 13357" d="M328.187,313.253a2.571,2.571,0,0,1-.887.71l.266.621a2.483,2.483,0,0,0,1.153-.887,4.25,4.25,0,0,0,.621-1.42l-.621-.177A2.768,2.768,0,0,1,328.187,313.253Z" transform="translate(-306.627 -278.473)" fill="#5b5b6c"/>
              <path id="Path_13358" data-name="Path 13358" d="M327.886,295.373c-.355-.976-.71-1.775-1.065-2.573l-.621.355c.355.71.71,1.6,1.065,2.484Z" transform="translate(-306.503 -276.297)" fill="#5b5b6c"/>
              <path id="Path_13359" data-name="Path 13359" d="M322.81,279.1h-.71a26.864,26.864,0,0,0,.177,2.75l.71-.089A12.568,12.568,0,0,1,322.81,279.1Z" transform="translate(-306.041 -274.752)" fill="#5b5b6c"/>
              <path id="Path_13360" data-name="Path 13360" d="M329.9,307.2h-.71v.266a20.068,20.068,0,0,1-.089,2.4l.71.089a21.643,21.643,0,0,0,.089-2.484Z" transform="translate(-306.83 -277.921)" fill="#5b5b6c"/>
              <path id="Path_13361" data-name="Path 13361" d="M323.753,286.562a11.786,11.786,0,0,1-.532-2.662l-.621.089c.177.976.355,1.863.532,2.75Z" transform="translate(-306.097 -275.294)" fill="#5b5b6c"/>
              <path id="Path_13362" data-name="Path 13362" d="M324.321,288.6l-.621.266a10.39,10.39,0,0,0,1.242,2.218c.089.089.089.177.177.177l.532-.355c-.089-.089-.089-.177-.177-.266A8.806,8.806,0,0,1,324.321,288.6Z" transform="translate(-306.221 -275.824)" fill="#5b5b6c"/>
              <path id="Path_13363" data-name="Path 13363" d="M322.7,315.41l.177.621a21.847,21.847,0,0,0,2.662-.71l-.177-.621A27.439,27.439,0,0,1,322.7,315.41Z" transform="translate(-306.108 -278.766)" fill="#5b5b6c"/>
            </g>
          </g>
          <g id="Group_4304" data-name="Group 4304" transform="translate(32.424 40.144)">
            <g id="Group_4302" data-name="Group 4302" transform="translate(20.407)">
              <path id="Path_13364" data-name="Path 13364" d="M361.61,311.008c-.444-.71-.71-1.153-.71-1.153l.532-.355s.266.444.71,1.153Z" transform="translate(-360.9 -309.5)" fill="#5b5b6c"/>
            </g>
            <g id="Group_4303" data-name="Group 4303" transform="translate(0 2.484)">
              <path id="Path_13365" data-name="Path 13365" d="M347.3,340.921c.71.177,1.6.355,2.573.621l.177-.621a25.876,25.876,0,0,0-2.573-.621Z" transform="translate(-338.96 -315.457)" fill="#5b5b6c"/>
              <path id="Path_13366" data-name="Path 13366" d="M342.789,339.6l-.089.621a14.934,14.934,0,0,0,1.775.177c.177,0,.444.089.8.089l.089-.621a3.675,3.675,0,0,0-.887-.089C344.031,339.689,343.41,339.689,342.789,339.6Z" transform="translate(-338.441 -315.378)" fill="#5b5b6c"/>
              <path id="Path_13367" data-name="Path 13367" d="M351.9,342.121c.8.177,1.686.444,2.573.71l.177-.621c-.887-.266-1.775-.532-2.573-.71Z" transform="translate(-339.478 -315.592)" fill="#5b5b6c"/>
              <rect id="Rectangle_2398" data-name="Rectangle 2398" width="0.71" height="2.662" transform="matrix(0.27, -0.963, 0.963, 0.27, 16.476, 27.669)" fill="#5b5b6c"/>
              <path id="Path_13368" data-name="Path 13368" d="M361.1,344.721c.887.266,1.686.444,2.573.71l.177-.621c-.887-.266-1.686-.444-2.573-.71Z" transform="translate(-340.516 -315.885)" fill="#5b5b6c"/>
              <path id="Path_13369" data-name="Path 13369" d="M372.741,326.218A19.478,19.478,0,0,1,371.232,324l-.532.355c.532.71.976,1.42,1.508,2.218Z" transform="translate(-341.598 -313.619)" fill="#5b5b6c"/>
              <path id="Path_13370" data-name="Path 13370" d="M387.352,345.1a5.816,5.816,0,0,0-1.42-2.4l-.532.444a4.527,4.527,0,0,1,1.242,2.129Z" transform="translate(-343.255 -315.728)" fill="#5b5b6c"/>
              <path id="Path_13371" data-name="Path 13371" d="M375.529,330.129l-1.6-2.129-.532.355,1.6,2.129Z" transform="translate(-341.903 -314.07)" fill="#5b5b6c"/>
              <path id="Path_13372" data-name="Path 13372" d="M337.989,339.289l-.089.266c.976.177,1.863.355,2.662.444l.089-.621a5.236,5.236,0,0,0-1.242-.177A8.129,8.129,0,0,0,337.989,339.289Z" transform="translate(-337.9 -315.333)" fill="#5b5b6c"/>
              <path id="Path_13373" data-name="Path 13373" d="M362.6,312.655c.444.621.887,1.42,1.508,2.218l.532-.355c-.532-.8-1.065-1.6-1.508-2.218Z" transform="translate(-340.685 -312.3)" fill="#5b5b6c"/>
              <path id="Path_13374" data-name="Path 13374" d="M380.676,348.589a3.328,3.328,0,0,1-.887-.089l-.089.71c.355,0,.621.089.887.089h.177c.621,0,1.242-.089,1.686-.089l-.089-.71A10.186,10.186,0,0,1,380.676,348.589Z" transform="translate(-342.613 -316.381)" fill="#5b5b6c"/>
              <path id="Path_13375" data-name="Path 13375" d="M384.141,340.8c-.444-.444-.976-.976-1.508-1.6l-.532.444c.532.621,1.065,1.153,1.508,1.6l.355.355.444-.444C384.407,341.063,384.229,340.886,384.141,340.8Z" transform="translate(-342.883 -315.333)" fill="#5b5b6c"/>
              <path id="Path_13376" data-name="Path 13376" d="M381.318,337.641c-.532-.621-1.065-1.331-1.686-2.041l-.532.444c.621.8,1.153,1.42,1.686,2.041Z" transform="translate(-342.545 -314.927)" fill="#5b5b6c"/>
              <path id="Path_13377" data-name="Path 13377" d="M376.2,332.244c.532.71,1.065,1.508,1.6,2.129l.532-.444c-.532-.621-1.065-1.42-1.6-2.129Z" transform="translate(-342.218 -314.499)" fill="#5b5b6c"/>
              <path id="Path_13378" data-name="Path 13378" d="M384.4,348.053l.177.621a3.94,3.94,0,0,0,2.484-1.42l-.532-.355A4.058,4.058,0,0,1,384.4,348.053Z" transform="translate(-343.143 -316.201)" fill="#5b5b6c"/>
              <path id="Path_13379" data-name="Path 13379" d="M365.7,346.021c.887.266,1.775.444,2.573.71l.177-.621c-.8-.266-1.686-.444-2.573-.71Z" transform="translate(-341.034 -316.032)" fill="#5b5b6c"/>
              <path id="Path_13380" data-name="Path 13380" d="M374.9,348.321a17.61,17.61,0,0,0,2.662.532l.089-.621c-.71-.089-1.6-.355-2.573-.532Z" transform="translate(-342.072 -316.291)" fill="#5b5b6c"/>
              <path id="Path_13381" data-name="Path 13381" d="M368,320.555c.532.71.976,1.42,1.508,2.218l.532-.355c-.532-.71-1.065-1.508-1.508-2.218Z" transform="translate(-341.294 -313.191)" fill="#5b5b6c"/>
              <path id="Path_13382" data-name="Path 13382" d="M367.341,318.418c-.532-.8-1.065-1.508-1.508-2.218l-.532.355c.444.71.976,1.42,1.508,2.218Z" transform="translate(-340.989 -312.74)" fill="#5b5b6c"/>
              <path id="Path_13383" data-name="Path 13383" d="M370.3,347.221c.887.266,1.775.444,2.573.621l.177-.621c-.8-.177-1.686-.444-2.573-.621Z" transform="translate(-341.553 -316.167)" fill="#5b5b6c"/>
            </g>
          </g>
        </g>
        <path id="Path_13384" data-name="Path 13384" d="M344.316,337.521A26.04,26.04,0,0,1,335,339.828a19.875,19.875,0,0,1,6.388-2.928A13.355,13.355,0,0,1,344.316,337.521Z" transform="translate(-234.807 -134.417)" fill="#2c2a40"/>
        <g id="Group_4307" data-name="Group 4307" transform="translate(63.727 36.832)">
          <path id="Path_13385" data-name="Path 13385" d="M403.032,168.134c-.089,4.259-.266,7.275-.266,7.275a18.992,18.992,0,0,0-2.484,1.065c-5.767,2.928-12.954,9.05-14.728,15.261-.71,2.484-.976,7.542-1.153,13.4-.089,4.7-.089,9.76,0,14.285v.71c.089,5.678.266,10.292.266,11.623,0,3.638-.71,14.462-.887,19.076-.177,4.7,1.153,9.671,1.775,17.479.621,7.9-5.146,6.921-5.146,6.921,5.59-2.307,2.662-8.961-.887-10.381-.532-.177-1.153-.444-1.863-.71h0c-8.429-3.017-28.126-8.074-38.152-9.494-14.906-2.218-22.98,7.63-22.98,7.63s2.928-16.237,5.412-19.431,3.9-13.752,4.969-18.1a13.921,13.921,0,0,0,.266-2.129A77.12,77.12,0,0,0,325.93,209.3c-.177-1.242-.355-2.041-.355-2.041-1.508,2.484-11.268,7.63-16.325,10.115-1.775.887-2.928,1.42-2.928,1.42l-4.17-6.3-8.251-12.51s.532-.532,2.218-1.863c1.242-.976,3.017-2.307,5.59-4.259,6.3-4.7,13.752-13.131,16.5-14.462s3.194-1.153,6.832-4.7c2.573-2.484,11.8-5.412,17.124-7.009,2.307-.621,3.815-1.065,3.815-1.065a16.891,16.891,0,0,0,12.333-.8s1.952-1.242,4.614-2.839c4.259-2.573,10.381-6.033,12.865-6.211,3.194-.266,16.947-4.081,22.8-5.767,1.6-.444,2.573-.71,2.573-.71C402.855,155.357,403.121,162.722,403.032,168.134Z" transform="translate(-293.9 -150.211)" fill="#a5c723"/>
          <g id="Group_4306" data-name="Group 4306" transform="translate(0.177)">
            <path id="Path_13386" data-name="Path 13386" d="M358.182,174.892a9.846,9.846,0,0,1-9.582-5.59c2.307-.621,3.815-1.065,3.815-1.065a16.891,16.891,0,0,0,12.333-.8s1.952-1.242,4.614-2.839C370.16,170.988,365.28,174.537,358.182,174.892Z" transform="translate(-300.245 -151.824)" fill="#2c2a40"/>
            <path id="Path_13387" data-name="Path 13387" d="M309.449,223.453c-1.775.887-2.928,1.42-2.928,1.42L294.1,206.063s.532-.532,2.218-1.863Z" transform="translate(-294.1 -156.288)" fill="#2c2a40"/>
            <path id="Path_13388" data-name="Path 13388" d="M416.1,175.4a18.992,18.992,0,0,0-2.484,1.065c1.065-10.558-.621-21.294-1.42-25.553,1.6-.444,2.573-.71,2.573-.71C417.346,159.339,416.1,175.4,416.1,175.4Z" transform="translate(-307.415 -150.2)" fill="#2c2a40"/>
          </g>
          <path id="Path_13389" data-name="Path 13389" d="M388.581,225.491c-10.2-4.436-35.135-12.51-57.139,3.194a77.12,77.12,0,0,0-1.242-13.309c3.372-2.129,19.342-11.712,34.692-11.179a50.671,50.671,0,0,1,23.69,7.009C388.492,215.909,388.492,220.966,388.581,225.491Z" transform="translate(-297.993 -156.286)" fill="#b8e019"/>
        </g>
        <g id="Group_4309" data-name="Group 4309" transform="translate(99.553)">
          <path id="Path_13390" data-name="Path 13390" d="M339.822,129.092s-4.081-.887-4.525,3.815c-.444,3.993,4.7,5.5,4.7,5.5S341.6,131.665,339.822,129.092Z" transform="translate(-334.39 -110.98)" fill="#2c2a40"/>
          <path id="Path_13391" data-name="Path 13391" d="M342.022,136.792s-4.081-.887-4.525,3.815c-.444,3.993,4.7,5.5,4.7,5.5S343.8,139.276,342.022,136.792Z" transform="translate(-334.638 -111.848)" fill="#2c2a40"/>
          <path id="Path_13392" data-name="Path 13392" d="M339,127.774a7.493,7.493,0,0,1-4.259-9.582c2.218-7.1,10.558-4.259,10.558-4.259a5.725,5.725,0,0,1,5.856-5.235,7.871,7.871,0,0,1,7.542,4.17s3.726-3.726,8.34-2.573c4.525,1.153,6.122,6.654,4.7,9.227,0,0,2.928-.532,5.057,2.839,2.218,3.372,2.75,8.34,0,10.2a8.582,8.582,0,0,1,1.508,8.429,7.138,7.138,0,0,1-6.566,4.7s.887,6.3-5.235,7.808-5.5-3.9-5.5-3.9S350.357,124.935,339,127.774Z" transform="translate(-334.279 -108.687)" fill="#2c2a40"/>
          <g id="Group_4308" data-name="Group 4308" transform="translate(3.379 13.941)">
            <path id="Path_13393" data-name="Path 13393" d="M366.349,159.721l.887,4.348A2.807,2.807,0,0,1,366.083,167c-7.808,5.678-13.841,1.775-15.083-.177.976-.887,17.745-16.858,18.011-25.819C369.1,141,371.052,152.179,366.349,159.721Z" transform="translate(-339.543 -126.272)" fill="#f9b587"/>
            <path id="Path_13394" data-name="Path 13394" d="M339.953,141.613a11.47,11.47,0,0,0-.355,3.9,10.471,10.471,0,0,0,.8,3.283l2.75,7.1a6.733,6.733,0,0,0,6.477,4.259,22.976,22.976,0,0,0,11.357-3.372c7.1-4.7,7.1-15.527,7.1-15.527s-.621-11-9.671-15.172c-9.139-4.17-18.455.71-18.455.71l-1.065,7.719a6.714,6.714,0,0,0-.089,1.331,13.752,13.752,0,0,0,.621,4.259Z" transform="translate(-338.168 -124.4)" fill="#f9b587"/>
            <path id="Path_13395" data-name="Path 13395" d="M348.5,134.3s5.146-4.969,8.7-.532l-.621,1.153s-3.549-3.105-7.719.8Z" transform="translate(-339.261 -125.248)" fill="#2c2a40"/>
            <path id="Path_13396" data-name="Path 13396" d="M339.942,143.056a11.47,11.47,0,0,0-.355,3.9c1.065-.8,3.283-1.42,7.808-.8a9.058,9.058,0,0,0-4.791-1.952.958.958,0,0,1-.887-1.242l1.331-4.081a2.812,2.812,0,0,0-1.508-1.153,18.12,18.12,0,0,0-2.839-.532,13.751,13.751,0,0,0,.621,4.259Z" transform="translate(-338.156 -125.843)" fill="#f39568"/>
            <path id="Path_13397" data-name="Path 13397" d="M338.9,135.8a10.659,10.659,0,0,1,3.105.621l.177,1.331a9.349,9.349,0,0,0-3.283-.532c-.444,0-.887-.355-.8-.71h0A.679.679,0,0,1,338.9,135.8Z" transform="translate(-338.087 -125.684)" fill="#2c2a40"/>
            <path id="Path_13398" data-name="Path 13398" d="M342.394,150.753l12.155-1.153s-1.42,6.566-7.9,6.388C341.6,155.9,342.394,150.753,342.394,150.753Z" transform="translate(-338.568 -127.241)" fill="#fff"/>
            <path id="Path_13399" data-name="Path 13399" d="M351.721,162.946s7.542-.976,11.623-11.446c0,0,1.863,3.9-.355,9.494S351.1,168,351.1,168Z" transform="translate(-339.554 -127.456)" fill="#f39568"/>
            <path id="Path_13400" data-name="Path 13400" d="M368.114,140.932s2.307-4.348,5.678-2.4,1.508,11.978-3.372,10.115C365.541,146.7,368.114,140.932,368.114,140.932Z" transform="translate(-341.396 -125.937)" fill="#f9b587"/>
          </g>
          <path id="Path_13401" data-name="Path 13401" d="M350.2,138.718s.71-2.218,2.662-2.218a3.282,3.282,0,0,1,3.372,2.4S353.483,135.08,350.2,138.718Z" transform="translate(-336.074 -111.823)" fill="#2c2a40"/>
          <path id="Path_13402" data-name="Path 13402" d="M342.605,140.588s-1.952-2.307-3.105.532A2.062,2.062,0,0,1,342.605,140.588Z" transform="translate(-334.867 -112.184)" fill="#2c2a40"/>
          <path id="Path_13403" data-name="Path 13403" d="M339.541,128.948a8.523,8.523,0,0,0,6.122-1.065c2.75-1.952,2.129-3.638,2.129-3.638a4.707,4.707,0,0,0,4.88,2.573c3.815-.266,4.259-1.331,4.259-1.331s-.177,4.259,2.928,4.88a5.215,5.215,0,0,0,4.969-1.863s-13.752-12.067-18.455-8.873S337.677,124.512,339.541,128.948Z" transform="translate(-334.819 -109.86)" fill="#2c2a40"/>
          <path id="Path_13404" data-name="Path 13404" d="M366.231,130.278s-1.863,3.638,1.331,5.678a18.559,18.559,0,0,1-1.153,5.678h2.4s1.775-3.105,1.6-5.767S370.224,129.213,366.231,130.278Z" transform="translate(-337.82 -111.101)" fill="#2c2a40"/>
        </g>
        <path id="Path_13405" data-name="Path 13405" d="M438.131,124.3a4.837,4.837,0,0,1-1.331,1.952s1.331-.089,1.775-.8Z" transform="translate(-246.284 -110.447)" fill="#f39568"/>
        <path id="Path_13406" data-name="Path 13406" d="M302.3,357.592Z" transform="translate(-231.12 -136.743)" fill="#a5c723"/>
        <path id="Path_13407" data-name="Path 13407" d="M378.738,270.007c-8.429-3.017-28.126-8.074-38.152-9.494-14.906-2.218-22.98,7.63-22.98,7.63s2.928-16.237,5.412-19.431,3.9-13.752,4.969-18.1a13.917,13.917,0,0,0,.266-2.129,77.121,77.121,0,0,0-1.242-13.309c-.177-1.242-.355-2.041-.355-2.041-1.508,2.484-11.268,7.63-16.325,10.115-1.775.887-2.928,1.42-2.928,1.42l-4.17-6.3-.532-2.75s10.913-5.945,25.908-14.019c0,0,6.743,8.518,6.654,18.366-.177,17.568-2.662,29.457,8.163,33.538C353.983,257.408,377.318,269.209,378.738,270.007Z" transform="translate(-231.165 -119.163)" fill="#2c2a40" opacity="0.2"/>
        <path id="Path_13408" data-name="Path 13408" d="M414.236,170.4c-.089,4.259-.266,7.275-.266,7.275a18.992,18.992,0,0,0-2.484,1.065c-5.767,2.928-12.954,9.05-14.728,15.261-.71,2.484-.976,7.542-1.153,13.4-.089,4.7-.089,9.76,0,14.285v.71s-3.815-26.351-1.686-34.07C396.225,180.692,413.881,170.666,414.236,170.4Z" transform="translate(-241.377 -115.645)" fill="#2c2a40" opacity="0.2"/>
        <path id="Path_13409" data-name="Path 13409" d="M333.9,176c-3.194,18.987-2.573,41.435-2.573,41.435A18.745,18.745,0,0,1,330,228.344c-12.155-13.131-3.815-52.348.71-60.244,5.59-9.76,13.664,1.686,13.664,1.686l-4.17,1.331s-1.42-2.041-3.194-1.6C335.233,169.874,333.9,176,333.9,176Z" transform="translate(-233.531 -114.941)" fill="#2c2a40"/>
        <path id="Path_13410" data-name="Path 13410" d="M373.955,162.148s1.242-9.582,8.251-9.849c11.091-.355,13.841,28.747,14.728,44.54s-3.46,18.9-3.46,18.9l-.177-8.961s-5.767-38.773-8.606-45.6c-3.105-7.453-5.767-3.815-8.606,0l-2.484,1.153" transform="translate(-239.159 -113.604)" fill="#2c2a40"/>
      </g>
      <g id="Group_4321" data-name="Group 4321" transform="translate(41.404 58.581)">
        <g id="Group_4312" data-name="Group 4312">
          <path id="Path_13411" data-name="Path 13411" d="M94.757,143.293c-17.923-4.614-31.941-21.56-35.668-25.642a6.18,6.18,0,0,1-1.065-1.775h0c-3.549-7.364-9.316-31.586-10.558-37.087a3.9,3.9,0,0,1-.177-.887.389.389,0,0,0-.089-.266L57.4,73.2s.8,9.76,5.767,17.656c4.88,7.9,9.4,20.407,9.4,20.407,9.582,4.7,19.874,13.486,19.874,13.486C97.773,136.017,94.757,143.293,94.757,143.293Z" transform="translate(-42.644 -60.229)" fill="#f9b587"/>
          <path id="Path_13412" data-name="Path 13412" d="M96.132,148.716c-17.923-4.614-31.941-21.56-35.668-25.642A6.18,6.18,0,0,1,59.4,121.3c.177.177,13.486,11.534,18.455,14.462,5.057,2.928,10.736,5.5,13.486,3.549,2.839-1.952,3.549-5.678,2.484-9.05C99.149,141.441,96.132,148.716,96.132,148.716Z" transform="translate(-44.019 -65.652)" fill="#f39568"/>
          <g id="Group_4311" data-name="Group 4311">
            <path id="Path_13413" data-name="Path 13413" d="M47.242,76.52A65.7,65.7,0,0,0,56.913,74.3a1.21,1.21,0,0,0,.444-1.065,10.7,10.7,0,0,0,2.4-3.726c.266-.8-.621-1.508-1.6-2.129.887-1.686.976-6.3-1.065-8.074-2.307-1.863-4.525.444-4.525.444a2.681,2.681,0,0,0-4.259.71c-1.242-.8-3.46.8-3.46.8-1.153-.621-2.4.621-2.75,1.686-.266,1.153,1.242,10.47,2.041,11.534A8.269,8.269,0,0,0,47.242,76.52Z" transform="translate(-42.065 -58.581)" fill="#f9b587"/>
            <path id="Path_13414" data-name="Path 13414" d="M54.725,70.384a1.385,1.385,0,0,0,2.129.444c-.355.089-.887-.444-1.331-.887a2.724,2.724,0,0,1-.621-.71h0a2.11,2.11,0,0,1-.355-1.952c.355-1.331,1.065-1.508,1.065-1.508l-.976-4.17a17.235,17.235,0,0,0,.089,4.081,3.236,3.236,0,0,0-.266,4.17,1.234,1.234,0,0,1-1.331.355,3.506,3.506,0,0,1-1.6-1.952L50.2,62.576s.355,6.566,1.6,7.808A1.887,1.887,0,0,0,54.725,70.384Z" transform="translate(-42.982 -58.921)" fill="#f39568"/>
            <path id="Path_13415" data-name="Path 13415" d="M46.3,64.7a40.746,40.746,0,0,0,1.42,5.767,1.893,1.893,0,0,0,2.573.8A1.578,1.578,0,0,0,51,70.112l.887.8s-1.686,2.75-3.993.8C46.655,70.733,46.3,64.7,46.3,64.7Z" transform="translate(-42.542 -59.271)" fill="#f39568"/>
            <path id="Path_13416" data-name="Path 13416" d="M47.273,71.9a1.79,1.79,0,0,1-.8,1.6c-.887.532-1.42.266-1.775-.266a1.182,1.182,0,0,0,.976.976c1.242.177,2.041-1.153,2.307-1.6Z" transform="translate(-42.362 -60.082)" fill="#f39568"/>
          </g>
          <path id="Path_13417" data-name="Path 13417" d="M49.6,78.766a3.429,3.429,0,0,1-2.218.621A3.9,3.9,0,0,1,47.2,78.5,6.922,6.922,0,0,0,49.6,78.766Z" transform="translate(-42.644 -60.827)" fill="#f39568"/>
          <path id="Path_13418" data-name="Path 13418" d="M58.741,76A5.887,5.887,0,0,1,56.7,77.331a3.743,3.743,0,0,0,2.129-.532Z" transform="translate(-43.715 -60.545)" fill="#f39568"/>
          <path id="Path_13419" data-name="Path 13419" d="M75.124,116.1s-3.46,2.839-5.324,3.194a7.059,7.059,0,0,0,7.187-2.218Z" transform="translate(-45.192 -65.066)" fill="#f39568"/>
        </g>
        <path id="Path_13420" data-name="Path 13420" d="M87.963,207.456a3.048,3.048,0,0,0,1.952,1.065c.621,9.4,1.863,17.39,3.726,20.85,5.767,10.558,43.3,11.268,51.106,2.041s5.767-63.261-7.275-70.182c-9.76-5.146-28.57-3.726-37.442-2.75a9.207,9.207,0,0,0-7.808,6.743c-1.508,5.856-2.4,14.817-2.662,24.4a5.639,5.639,0,0,0-1.6.532C86.188,191.13,86.9,205.859,87.963,207.456Z" transform="translate(-47.118 -69.737)" fill="#2c2a40"/>
        <path id="Path_13421" data-name="Path 13421" d="M238.987,154.526s-2.839,10.647-7.364,22.448c-.71,1.775-1.42,3.549-2.129,5.412-3.105,7.364-6.743,14.64-10.647,19.52a18.391,18.391,0,0,1-6.477,5.59s-6.388.887-10.824-1.775-21.915-11.268-24.045-14.995c0,0,6.743-9.494,13.043-10.381,0,0,2.4,1.242,5.678,3.194a141.037,141.037,0,0,1,12.51,8.163,13.043,13.043,0,0,1,1.153.887s.355-.621.887-1.775c1.508-2.839,4.7-8.7,8.606-14.906.8-1.331,1.686-2.662,2.573-3.993a5.387,5.387,0,0,1,.621-.887c6.921-10.292,7.808-17.745,7.808-17.745S237.123,152.574,238.987,154.526Z" transform="translate(-57.335 -69.244)" fill="#f9b587"/>
        <path id="Path_13422" data-name="Path 13422" d="M236.955,179.357c-.71,1.775-1.42,3.549-2.129,5.412L224.8,178.293c.8-1.331,1.686-2.662,2.573-3.993Z" transform="translate(-62.668 -71.628)" fill="#f39568"/>
        <path id="Path_13423" data-name="Path 13423" d="M218.746,205.36a18.391,18.391,0,0,1-6.477,5.59s-6.388.887-10.824-1.775-21.915-11.268-24.045-14.995c0,0,6.743-9.494,13.043-10.381,0,0,2.4,1.242,5.678,3.194-.355,1.331-1.952,6.122-4.7,8.429-3.194,2.75,4.259,8.961,10.736,11.712S213.156,209.8,218.746,205.36Z" transform="translate(-57.324 -72.699)" fill="#f39568"/>
        <path id="Path_13424" data-name="Path 13424" d="M213.587,204.55c.71-3.017-.887-8.163-.887-8.163a13.043,13.043,0,0,1,1.153.887s.355-.621.887-1.775C215.45,202.066,213.587,204.55,213.587,204.55Z" transform="translate(-61.304 -74.018)" fill="#f39568"/>
        <path id="Path_13425" data-name="Path 13425" d="M177.953,379.807c-5.945-3.46-8.074-6.832-11.623-12.776-2.129-3.549-4.081-6.477-5.324-8.34a4.094,4.094,0,0,1-.266-4.259c.089-.089.089-.177.177-.355,1.42-2.662,3.726-6.388,5.767-6.477l2.307,1.242L176.8,353.1s3.46,7.9,3.283,11.268c-.089,3.017,5.678,9.937,7.453,13.841a6.117,6.117,0,0,1,.355.887,1.126,1.126,0,0,1,.089.532C188.333,383.09,183.9,383.268,177.953,379.807Z" transform="translate(-55.392 -91.167)" fill="#b0b1ca"/>
        <path id="Path_13426" data-name="Path 13426" d="M177.953,380.63c-5.945-3.46-8.074-6.832-11.623-12.776-2.129-3.549-4.081-6.477-5.324-8.34a4.094,4.094,0,0,1-.266-4.259c.089-.089.089-.177.177-.355a16.706,16.706,0,0,0,3.283,6.832c2.662,3.105,6.654,10.2,7.542,11.534.976,1.331,7.542,7.1,11.8,7.9,3.372.71,3.993,0,4.259-1.153a1.125,1.125,0,0,1,.089.532C188.333,383.913,183.9,384.091,177.953,380.63Z" transform="translate(-55.392 -91.99)" fill="#2c2a40"/>
        <path id="Path_13427" data-name="Path 13427" d="M177.953,379.807c-5.945-3.46-8.074-6.832-11.623-12.776-2.129-3.549-4.081-6.477-5.324-8.34a4.094,4.094,0,0,1-.266-4.259c.089-.089.089-.177.177-.355,1.42-2.662,3.726-6.388,5.767-6.477l2.307,1.242s-4.436,3.993-3.017,8.34c1.42,4.436,6.122,11,8.606,13.93,2.4,2.839,7.719,7.719,12.954,7.1a6.117,6.117,0,0,1,.355.887,1.126,1.126,0,0,1,.089.532C188.333,383.09,183.9,383.268,177.953,379.807Z" transform="translate(-55.392 -91.167)" fill="#2c2a40" opacity="0.2"/>
        <path id="Path_13428" data-name="Path 13428" d="M174.309,402.279c-.177,3.993-2.928,7.542-9.139,6.566-7.009-1.153-8.961-7.009-10.558-10.558s-5.5-15.971-7.187-20.85a15.278,15.278,0,0,1-.177-7.719,23.76,23.76,0,0,1,.8-3.017l2.484.355,14.285,2.129a41.672,41.672,0,0,1,3.283,12.067c.532,5.5,4.17,12.6,5.59,17.3h0a12.4,12.4,0,0,1,.532,2.129A9.643,9.643,0,0,1,174.309,402.279Z" transform="translate(-53.878 -93.32)" fill="#b0b1ca"/>
        <path id="Path_13429" data-name="Path 13429" d="M174.309,402.279c-.177,3.993-2.928,7.542-9.139,6.566-7.009-1.153-8.961-7.009-10.558-10.558s-5.5-15.971-7.187-20.85a15.278,15.278,0,0,1-.177-7.719,23.76,23.76,0,0,1,.8-3.017l2.484.355c-.266,2.484.8,9.494,2.839,13.22,2.484,4.7,4.259,14.995,8.518,19.608s11.978,5.412,11.8-1.242a12.4,12.4,0,0,1,.532,2.129A8.118,8.118,0,0,1,174.309,402.279Z" transform="translate(-53.878 -93.32)" fill="#2c2a40" opacity="0.2"/>
        <path id="Path_13430" data-name="Path 13430" d="M174.309,402.662c-.177,3.993-2.928,7.542-9.139,6.566-7.009-1.153-8.961-7.009-10.558-10.558s-5.5-15.971-7.187-20.85a15.278,15.278,0,0,1-.177-7.719,94.41,94.41,0,0,0,4.436,14.817c3.549,9.139,6.388,17.124,8.873,19.786S172.889,409.139,174.309,402.662Z" transform="translate(-53.878 -93.704)" fill="#2c2a40"/>
        <path id="Path_13431" data-name="Path 13431" d="M95.392,150.4l5.59,1.775s-.976,3.993-2.573,3.993S94.948,155.28,95.392,150.4Z" transform="translate(-48.07 -68.933)" fill="#00497b"/>
        <g id="Group_4317" data-name="Group 4317" transform="translate(59.388 167.527)">
          <path id="Path_13432" data-name="Path 13432" d="M178.723,308.383c1.065,2.75.089,5.5-1.153,10.026,4.791-6.921,12.776-17.923,12.776-17.923L167.1,293.3S177.57,305.367,178.723,308.383Z" transform="translate(-115.551 -252.572)" fill="none"/>
          <path id="Path_13433" data-name="Path 13433" d="M212.187,286a6.061,6.061,0,0,0-1.6-2.839c-2.4-2.75-9.494-10.115-23.778-18.632-18.189-10.824-21.56-9.937-30.7-16.68,0,0-31.054-3.46-43.83,8.872l-.355.355A16.563,16.563,0,0,0,109,261.063s0,16.148,6.388,22,26.351,26.706,28.215,26.44c0,0,.177,3.194,2.573,3.372,0,0-3.283,13.22-1.952,18.9,0,0-2.041,4.791-1.065,8.163,1.065,3.46-.266,6.832-.266,8.961s1.775,11.357,7.63,13.22c5.767,1.952,12.244-.177,12.688-5.235s-.71-8.34-.266-11.179c.089-.8.621-3.017,1.42-6.033,2.129,1.331,5.5,2.307,6.654,2.129,1.508-.266,4.614-9.05,6.566-9.671s8.784-9.05,13.664-13.841C195.951,313.766,215.648,299.126,212.187,286Zm-51.638,2.129,23.246,7.187s-7.985,11-12.776,17.923c1.242-4.525,2.218-7.364,1.153-10.026C171.019,300.191,160.549,288.124,160.549,288.124Z" transform="translate(-109 -247.396)" fill="#2c2a40"/>
          <g id="Group_4315" data-name="Group 4315" transform="translate(3.017 9.142)">
            <g id="Group_4313" data-name="Group 4313">
              <path id="Path_13434" data-name="Path 13434" d="M113.465,259.12l-.887.177a9.32,9.32,0,0,1-.177-1.153l.355-.355.444-.089C113.287,257.7,113.376,258.232,113.465,259.12Z" transform="translate(-112.4 -257.7)" fill="#5b5b6c"/>
            </g>
            <g id="Group_4314" data-name="Group 4314" transform="translate(0.532 3.46)">
              <path id="Path_13435" data-name="Path 13435" d="M113.887,261.6l-.887.177c.177.976.355,1.952.532,2.839l.887-.177C114.242,263.463,114.065,262.487,113.887,261.6Zm.976,4.791-.887.177c.177.976.444,1.952.621,2.839l.887-.177C115.307,268.343,115.129,267.367,114.863,266.391Zm1.153,4.791-.887.266c.266.976.532,1.952.8,2.839l.887-.266C116.549,273.134,116.283,272.158,116.017,271.182Zm1.42,4.7-.8.266a28.709,28.709,0,0,0,1.153,2.75l.8-.444A24.263,24.263,0,0,1,117.436,275.885Zm2.218,4.17-.621.621c.444.444,1.153,1.153,2.041,2.129l.621-.621C120.719,281.208,120.1,280.5,119.654,280.055Zm3.46,3.46-.621.621c.621.621,1.331,1.331,2.129,2.041l.621-.621C124.446,284.846,123.736,284.136,123.115,283.515Zm3.549,3.46-.621.621c.71.621,1.42,1.331,2.129,2.041l.621-.621C128.083,288.306,127.373,287.6,126.664,286.975Zm3.638,3.372-.621.621c.71.621,1.42,1.331,2.129,2.041l.621-.621A23.615,23.615,0,0,1,130.3,290.347Zm3.549,3.46-.621.621c.71.71,1.42,1.331,2.129,2.041l.621-.621C135.27,295.138,134.56,294.428,133.85,293.807Zm3.638,3.372-.621.621c.71.71,1.42,1.331,2.129,1.952l.621-.621C138.908,298.51,138.2,297.8,137.488,297.179Zm3.638,3.283-.621.621c.8.71,1.508,1.331,2.218,1.952l.621-.71A10.765,10.765,0,0,1,141.126,300.462Zm3.638,3.283-.621.71c.887.8,1.686,1.42,2.218,1.863l.532-.71C146.449,305.164,145.651,304.543,144.764,303.744Zm3.815,3.017-.355.8a2.368,2.368,0,0,1,1.242,2.041l.887-.177A3.418,3.418,0,0,0,148.579,306.761Zm2.041,4.7-.887.089a18.613,18.613,0,0,0,.532,2.928l.887-.266C150.886,313.327,150.8,312.262,150.62,311.464Zm-.177,4.88c-.089.71-.177,1.686-.355,2.839l.887.177c.177-1.242.355-2.129.444-2.928Zm-.8,4.791c-.177.71-.266,1.508-.444,2.307l-.089.621.887.177.089-.621a21.13,21.13,0,0,0,.444-2.307Zm-1.065,4.88a25.287,25.287,0,0,0-.532,2.839l.887.177c.177-.8.355-1.775.532-2.839Zm.089,4.969-.887-.089c-.089.976-.177,1.863-.177,2.573v.444h.887v-.355C148.49,332.758,148.579,331.959,148.668,330.983Zm-.089,4.88h-.887V338.7h.887v-1.42A3.819,3.819,0,0,0,148.579,335.863Zm-.976,4.88c0,.532-.089,1.065-.089,1.6,0,.444-.089.887-.089,1.331l.887.089c0-.444.089-.887.089-1.331,0-.532.089-1.065.089-1.6Zm.71,7.364v-2.4h-.887v2.928h.887Zm-.976,2.484c-.089.8-.266,1.775-.444,2.839l.887.177c.177-1.065.355-2.041.444-2.928Zm-.887,4.791c-.177.887-.444,1.863-.621,2.839l.887.177c.266-.976.444-1.952.71-2.839Z" transform="translate(-113 -261.6)" fill="#5b5b6c"/>
            </g>
          </g>
          <g id="Group_4316" data-name="Group 4316" transform="translate(48.089 33.719)">
            <path id="Path_13436" data-name="Path 13436" d="M163.2,286.287s1.065.355,2.75.887l.266-.887c-1.686-.621-2.75-.887-2.75-.887Z" transform="translate(-163.2 -285.4)" fill="#5b5b6c"/>
            <path id="Path_13437" data-name="Path 13437" d="M171.517,288.176c-.976-.355-1.952-.621-2.75-.976l-.266.887c.8.266,1.775.621,2.75.976Z" transform="translate(-163.798 -285.603)" fill="#5b5b6c"/>
            <path id="Path_13438" data-name="Path 13438" d="M178.2,328.1l.71.532,1.686-2.4-.71-.532Z" transform="translate(-164.891 -289.944)" fill="#5b5b6c"/>
            <rect id="Rectangle_2399" data-name="Rectangle 2399" width="2.928" height="0.887" transform="matrix(0.575, -0.818, 0.818, 0.575, 10.482, 42.19)" fill="#5b5b6c"/>
            <path id="Path_13439" data-name="Path 13439" d="M173.2,335.332a8.608,8.608,0,0,0,.089,1.508l1.065-1.508-.71-.532Z" transform="translate(-164.327 -290.97)" fill="#5b5b6c"/>
            <path id="Path_13440" data-name="Path 13440" d="M176.717,289.976c-.976-.355-1.863-.621-2.75-.976l-.266.887c.887.266,1.775.621,2.75.976Z" transform="translate(-164.384 -285.806)" fill="#5b5b6c"/>
            <path id="Path_13441" data-name="Path 13441" d="M192.517,295.376c-.887-.266-1.775-.621-2.75-.976l-.266.8c.976.355,1.863.71,2.75.976Z" transform="translate(-166.165 -286.415)" fill="#5b5b6c"/>
            <path id="Path_13442" data-name="Path 13442" d="M182.017,291.776c-.887-.355-1.863-.621-2.75-.976l-.266.887c.887.355,1.863.621,2.75.976Z" transform="translate(-164.981 -286.009)" fill="#5b5b6c"/>
            <path id="Path_13443" data-name="Path 13443" d="M191.6,310.429l.621.621c.621-.621,1.242-1.42,1.952-2.129l-.71-.621A21.341,21.341,0,0,1,191.6,310.429Z" transform="translate(-166.402 -287.982)" fill="#5b5b6c"/>
            <path id="Path_13444" data-name="Path 13444" d="M195.3,306.307l.71.532a27.321,27.321,0,0,0,1.775-2.307l-.71-.532C196.542,304.71,196.01,305.42,195.3,306.307Z" transform="translate(-166.819 -287.497)" fill="#5b5b6c"/>
            <path id="Path_13445" data-name="Path 13445" d="M197.717,297.365c-.621-.266-1.6-.621-2.75-1.065l-.266.8c1.153.444,2.041.8,2.75,1.065Z" transform="translate(-166.752 -286.629)" fill="#5b5b6c"/>
            <path id="Path_13446" data-name="Path 13446" d="M199.931,299.1l-.8.266a3.843,3.843,0,0,1,.089.444,5.387,5.387,0,0,1-.621,1.952l.8.444a5.366,5.366,0,0,0,.8-2.4C200.02,299.632,200.02,299.366,199.931,299.1Z" transform="translate(-167.191 -286.945)" fill="#5b5b6c"/>
            <path id="Path_13447" data-name="Path 13447" d="M181.4,323.6l.71.444,1.686-2.307-.71-.532Z" transform="translate(-165.252 -289.436)" fill="#5b5b6c"/>
            <path id="Path_13448" data-name="Path 13448" d="M187.9,314.629l.71.621c.532-.621,1.065-1.242,1.952-2.129l-.621-.621A21.557,21.557,0,0,0,187.9,314.629Z" transform="translate(-165.985 -288.455)" fill="#5b5b6c"/>
            <path id="Path_13449" data-name="Path 13449" d="M186.02,317.055,184.6,319.1l.71.532,1.42-2.041c.089-.089.177-.266.266-.355l-.71-.532A1.224,1.224,0,0,0,186.02,317.055Z" transform="translate(-165.613 -288.929)" fill="#5b5b6c"/>
            <path id="Path_13450" data-name="Path 13450" d="M184.2,293.487c.976.355,1.863.621,2.75.976l.266-.887c-.887-.355-1.775-.621-2.75-.976Z" transform="translate(-165.568 -286.212)" fill="#5b5b6c"/>
          </g>
        </g>
        <path id="Path_13451" data-name="Path 13451" d="M185.355,180c-1.065,4.614-5.5,8.873-8.961,11.623h0a40.194,40.194,0,0,1-4.525,3.105l-2.129-1.775-6.477-5.59-3.105,6.388c-3.105,6.388-2.218,22.8-2.573,27.5-.355,4.081,5.945,13.664,7.275,16.858a1.492,1.492,0,0,1,.177.976c-.532,1.331-16.059,3.372-26.174,0s-30.521,8.873-31.231,8.7c-.71-.266-1.242-30.078-4.348-43.387s2.041-48.089,2.041-48.089l-4.17-1.331-1.863-.621c-5.5.266-3.726-6.211-3.726-6.211s.177,6.566,3.549,4.88c1.508-.8,1.42-5.235.887-9.937A97.463,97.463,0,0,0,97.961,131.2c.089,0,1.065.266,2.662.71,5.324,1.508,17.035,4.969,21.472,7.63,1.331.8,4.525,3.105,7.009,4.88,1.863,1.331,3.283,2.4,3.283,2.4,8.784,4.791,11.534,4.525,18.721,6.654.355.089.621.177.976.266,8.7,2.573,18.632,5.678,22.27,11.889a95.075,95.075,0,0,0,9.937,12.954C184.912,179.467,185.355,180,185.355,180Z" transform="translate(-48.066 -66.768)" fill="#007bb0"/>
        <path id="Path_13452" data-name="Path 13452" d="M101.055,155.078l-1.863-.621c-5.5.266-3.726-6.211-3.726-6.211s.177,6.566,3.549,4.88c1.508-.8,1.42-5.235.887-9.937A97.463,97.463,0,0,0,97.861,131.3c.089,0,1.065.266,2.662.71C101.854,137.422,104.16,149.223,101.055,155.078Z" transform="translate(-48.055 -66.78)" fill="#2c2a40"/>
        <path id="Path_13453" data-name="Path 13453" d="M194.816,185.975c-1.065,4.614-5.5,8.873-8.961,11.623h0a40.194,40.194,0,0,1-4.525,3.105l-2.129-1.775c7.1-4.791,12.067-10.824,14.019-14.728Z" transform="translate(-57.527 -72.744)" fill="#2c2a40"/>
        <path id="Path_13454" data-name="Path 13454" d="M154.418,155.185c-1.42,3.726-3.549,7.1-14.462,4.436-12.333-3.017-5.59-12.422-5.59-12.422,1.863,1.331,2.041,1.508,2.041,1.508,8.784,4.791,8.961,3.815,16.148,5.945C152.91,154.742,154.152,155.1,154.418,155.185Z" transform="translate(-52.264 -68.572)" fill="#2c2a40"/>
        <path id="Path_13455" data-name="Path 13455" d="M184.081,197.812a40.194,40.194,0,0,1-4.525,3.105l-8.518-7.364-3.105,6.388c-3.105,6.388-2.218,22.8-2.573,27.5-6.122-14.551,4.614-41.346,4.614-41.346C172.9,192.222,183.9,197.723,184.081,197.812Z" transform="translate(-55.754 -72.958)" fill="#2c2a40" opacity="0.2"/>
        <path id="Path_13456" data-name="Path 13456" d="M164.926,240.8c-.532,1.331-16.059,3.372-26.174,0s-30.521,8.873-31.231,8.7c-.71-.266-1.242-30.078-4.348-43.387s2.041-48.089,2.041-48.089l-6.122-1.952c-5.5.266-3.726-6.211-3.726-6.211s.177,6.566,3.549,4.88c1.508-.8,1.42-5.235.887-9.937,0,0,10.647,7.63,16.769,9.4,0,0-1.686,10.913-3.372,25.2-1.6,14.285-.621,24.045,2.662,33.982s10.558,19.52,20.762,20.584c10.115,1.065,20.052,8.163,28.126,5.767C164.926,240.268,165.015,240.623,164.926,240.8Z" transform="translate(-48.044 -68.302)" fill="#2c2a40" opacity="0.2"/>
        <g id="Group_4318" data-name="Group 4318" transform="translate(81.116 34.087)">
          <path id="Path_13457" data-name="Path 13457" d="M172.094,116.076h0a1.969,1.969,0,0,1-.444.355L138.2,128.143s-4.969-2.307-4.7-11a11.487,11.487,0,0,1,6.477-10.292,5.741,5.741,0,0,1-.71-.8.632.632,0,0,1,.444-.976,3.656,3.656,0,0,1,1.065.089,5.991,5.991,0,0,1-.177-1.242.573.573,0,0,1,.887-.532,4.045,4.045,0,0,1,1.42,1.242v-.089a18.615,18.615,0,0,1,12.155-5.5c2.484-.177,5.59-.355,8.606-.71,5.856-.621,10.381.444,12.067-1.331C176.087,96.911,183.274,108.978,172.094,116.076Z" transform="translate(-133.488 -96.999)" fill="#2c2a40"/>
          <path id="Path_13458" data-name="Path 13458" d="M176,116.1s3.46,7.985-2.218,12.776C173.691,128.876,172.893,119.294,176,116.1Z" transform="translate(-138.014 -99.153)" fill="#2c2a40"/>
          <path id="Path_13459" data-name="Path 13459" d="M151.814,154.145l-.177.177a9.355,9.355,0,0,1-3.283,1.6c-2.928.887-9.316-1.952-12.067-3.283a1.7,1.7,0,0,1-.8-2.041,35.948,35.948,0,0,0,2.307-12.954,37.042,37.042,0,0,1,2.75-13.043c-.71,3.194.532,7.808,2.4,12.422A112.114,112.114,0,0,0,151.814,154.145Z" transform="translate(-133.704 -100.111)" fill="#f9b587"/>
          <path id="Path_13460" data-name="Path 13460" d="M167.639,132.346a11.607,11.607,0,0,1-.621,3.9,14.334,14.334,0,0,1-1.508,3.105l-4.436,6.3a6.794,6.794,0,0,1-7.364,2.573,22.214,22.214,0,0,1-10.292-6.122c-5.856-6.388-3.194-17.035-3.194-17.035s3.283-10.647,13.22-12.51,17.922,5.146,17.922,5.146l-.8,7.808c-.089.444-.089.887-.177,1.331a12.317,12.317,0,0,1-1.686,3.993Z" transform="translate(-134.18 -98.718)" fill="#f9b587"/>
          <path id="Path_13461" data-name="Path 13461" d="M164.129,123.428s-3.815-6.211-8.429-2.573l.355,1.331s4.259-2.218,7.364,2.662Z" transform="translate(-135.993 -99.56)" fill="#2c2a40"/>
          <path id="Path_13462" data-name="Path 13462" d="M170.174,134.19a11.607,11.607,0,0,1-.621,3.9c-.887-1.065-2.928-2.218-7.453-2.662,0,0,2.839-1.331,5.146-.8a.913.913,0,0,0,1.153-.976l-.355-4.348a2.715,2.715,0,0,1,1.775-.71,18.3,18.3,0,0,1,2.928.177,12.317,12.317,0,0,1-1.686,3.993Z" transform="translate(-136.714 -100.562)" fill="#f39568"/>
          <path id="Path_13463" data-name="Path 13463" d="M173.838,127.376a16.709,16.709,0,0,0-3.194-.177l-.444,1.242a10.008,10.008,0,0,1,3.372.266.765.765,0,0,0,.976-.532h0A.841.841,0,0,0,173.838,127.376Z" transform="translate(-137.628 -100.403)" fill="#2c2a40"/>
          <path id="Path_13464" data-name="Path 13464" d="M165.712,140.881,154,136.8s-.266,6.832,6.211,8.251C165.268,146.116,165.712,140.881,165.712,140.881Z" transform="translate(-135.801 -101.487)" fill="#fff"/>
          <path id="Path_13465" data-name="Path 13465" d="M153.428,150.619l-.532,4.614-.266.266-.177.177c-1.686-.8-8.961-4.436-9.671-9.671a13.759,13.759,0,0,1,.887-7.453,10.3,10.3,0,0,1,1.065-1.952C146.241,147.868,153.428,150.619,153.428,150.619Z" transform="translate(-134.519 -101.464)" fill="#f39568"/>
          <path id="Path_13466" data-name="Path 13466" d="M143.194,125.2s-1.153-4.88-4.969-3.726-4.348,11.357.887,10.736C144.347,131.5,143.194,125.2,143.194,125.2Z" transform="translate(-133.69 -99.739)" fill="#f9b587"/>
          <path id="Path_13467" data-name="Path 13467" d="M155.207,112.279a3.073,3.073,0,0,0-2.484,3.017c-.266,2.75-.71,7.542-4.348,7.453-3.549-.089-3.9,4.259-3.9,4.259l-2.573-.621s-.266-7.719,1.42-10.381C145.092,113.344,152.279,109.528,155.207,112.279Z" transform="translate(-134.435 -98.615)" fill="#2c2a40"/>
          <path id="Path_13468" data-name="Path 13468" d="M156.5,126.064a3.455,3.455,0,0,1,3.726-.887,3.317,3.317,0,0,1,2.307,3.372S161.114,125.177,156.5,126.064Z" transform="translate(-136.083 -100.156)" fill="#2c2a40"/>
          <path id="Path_13469" data-name="Path 13469" d="M169.5,131.062a2.359,2.359,0,0,1,1.863-.177c.976.355.621,1.686.621,1.686S171.807,130.973,169.5,131.062Z" transform="translate(-137.549 -100.806)" fill="#2c2a40"/>
        </g>
        <g id="Group_4320" data-name="Group 4320" transform="translate(140.702 61.106)">
          <g id="Group_4319" data-name="Group 4319">
            <rect id="Rectangle_2400" data-name="Rectangle 2400" width="48.533" height="32.119" transform="translate(17.158 1.723) rotate(32.288)" fill="#2c2a40"/>
            <path id="Path_13470" data-name="Path 13470" d="M258.815,158.239l-17.124,27.15L200.7,159.481l1.775-.177,55.631-3.9.532,1.863h0Z" transform="translate(-200.652 -130.603)" fill="#2c2a40"/>
            <path id="Path_13471" data-name="Path 13471" d="M262.324,157.263,245.91,183.348c-.532-.355-.355-.177-1.242-.8l-11.268-26,28.392-1.153Z" transform="translate(-204.339 -130.603)" fill="#fff"/>
            <rect id="Rectangle_2401" data-name="Rectangle 2401" width="46.403" height="32.119" transform="translate(18.265 0) rotate(32.288)" fill="#2c2a40"/>
          </g>
          <path id="Path_13472" data-name="Path 13472" d="M248.822,142.4h0a2.907,2.907,0,0,0-1.863-1.42c0-.621-.621-1.153-1.331-1.508a2.283,2.283,0,0,0-1.331-.089c-.177-.71-.976-1.331-1.508-1.153a1.4,1.4,0,0,0-.355.089,2.218,2.218,0,0,0-.355-.887h0c-.355-.8-1.686-1.508-2.307-1.242,0,0-5.146.887-6.3,4.436-1.242,3.549-2.75,7.63-.976,7.364a2.8,2.8,0,0,0,1.686-1.331c-.621,2.129-.887,3.815.266,3.638.621-.089,1.42-.887,2.129-1.863-.532,1.863-.621,3.105.444,3.017.976-.089,2.218-1.686,3.105-3.46-.621,2.041-.8,3.638.355,3.46,1.42-.177,2.4-3.017,3.815-5.235,1.686-2.573,1.6-1.065,3.372-1.775l1.331.8A2.863,2.863,0,0,0,248.822,142.4Z" transform="translate(-204.146 -128.431)" fill="#f9b587"/>
        </g>
        <path id="Path_13473" data-name="Path 13473" d="M130.545,145.655s1.42-11.8-3.46-12.776c-9.494-1.863-20.052,12.155-25.73,26.8-8.606,22,1.331,38.507,1.331,38.507l.177-8.429s-.8-18.277,7.719-32.828c8.518-14.462,14.373-18.366,15.616-17.39s1.331,3.815,1.331,3.815Z" transform="translate(-48.354 -66.939)" fill="#2c2a40"/>
        <path id="Path_13474" data-name="Path 13474" d="M159.1,156.174s2.839-7.364,11.978-4.081c7.985,2.839,7.1,11.357,5.945,22.536-1.242,11.179-12.067,38.773-12.067,38.773s-.444-9.76.8-15.527c0,0,7.453-24.577,4.791-34.248s-8.7-6.654-8.7-6.654Z" transform="translate(-55.26 -69.029)" fill="#2c2a40"/>
      </g>
    </g>
  </g>
</svg>
