<svg id="saudi-arabia" xmlns="http://www.w3.org/2000/svg" width="68.562" height="68.562" viewBox="0 0 68.562 68.562">
  <path id="Path_12763" data-name="Path 12763" d="M53.564,0H15A15,15,0,0,0,0,15V53.564a15,15,0,0,0,15,15H53.564a15,15,0,0,0,15-15V15A15,15,0,0,0,53.564,0Z" fill="#73af00"/>
  <g id="Group_3567" data-name="Group 3567" transform="translate(9.538 18.74)">
    <path id="Path_12764" data-name="Path 12764" d="M72.982,154.3c.139.891.678,1.171,1.147,1.135a1.152,1.152,0,0,0,1.037-1.082v-3.06a.278.278,0,0,1,.556,0v3.073a1.112,1.112,0,0,0,1.526,1.033l.278-.111c.026,2.568-.131,4.825-.134,4.867a.556.556,0,0,0,.515.594l.04,0a.556.556,0,0,0,.554-.517c.013-.181.184-2.653.133-5.39l.168-.067a.558.558,0,0,1,.455.019,1.589,1.589,0,0,0,1.834-.3l.1-.1a1.661,1.661,0,0,0,.4-1.708l-.474-1.421a.556.556,0,0,0,.412-1.029l-1.113-.556a.556.556,0,0,0-.777.674l.9,2.685a.554.554,0,0,1-.134.569l-.1.1a.478.478,0,0,1-.551.089,1.663,1.663,0,0,0-1.156-.116,19.182,19.182,0,0,0-.68-4.793.556.556,0,0,0-1.056.352A19.113,19.113,0,0,1,77.5,154.1l-.666.266v-3.073a1.391,1.391,0,0,0-2.782,0v2.693l-.568-2.8a.556.556,0,1,0-1.09.221Z" transform="translate(-72.228 -147.363)" fill="#f5f5f5"/>
    <path id="Path_12765" data-name="Path 12765" d="M81.254,146.027a.556.556,0,0,0,.556-.556v-.556a.556.556,0,1,0-1.113,0v.556A.556.556,0,0,0,81.254,146.027Z" transform="translate(-79.429 -143.767)" fill="#f5f5f5"/>
    <path id="Path_12766" data-name="Path 12766" d="M122.8,145.47h.556a.556.556,0,1,0,0-1.113H122.8a.556.556,0,1,0,0,1.113Z" transform="translate(-115.408 -143.766)" fill="#f5f5f5"/>
    <path id="Path_12767" data-name="Path 12767" d="M79.595,206.749l-2.781,1.669a.556.556,0,0,0,.573.954l2.781-1.669a.556.556,0,1,0-.573-.954Z" transform="translate(-75.831 -197.734)" fill="#f5f5f5"/>
    <path id="Path_12768" data-name="Path 12768" d="M97.8,157.361l.013-.009a1.269,1.269,0,0,0,.257.523,1.093,1.093,0,0,0,.948.368,1.534,1.534,0,0,0,1.157-.608,1,1,0,0,0,.117.07,1.053,1.053,0,0,0,.979-.031,2.112,2.112,0,0,0,1-1.958.569.569,0,0,0-.579-.527.558.558,0,0,0-.532.577c0,.007.013.667-.391.912a1.355,1.355,0,0,1-.173-.469.556.556,0,0,0-1.105.092c0,.081-.018.795-.569.854a1.358,1.358,0,0,1,0-.728.556.556,0,0,0-.854-.589l-.311.211c-.147-3.226-.487-6.985-.491-7.034a.556.556,0,0,0-1.108.1c0,.051.4,4.4.519,7.723-.028.027-.058.057-.086.082a1.434,1.434,0,0,0-1.218-.957,2.03,2.03,0,0,0-1.959,1.24,1.316,1.316,0,0,0,.425,1.659,1.854,1.854,0,0,0,1.659.076,4.651,4.651,0,0,1-.9,1.715,2.334,2.334,0,0,1-1.777.906,1.461,1.461,0,0,1-1.08-.461,3.176,3.176,0,0,1-.588-1.99.556.556,0,0,0-.525-.585.545.545,0,0,0-.586.525,4.268,4.268,0,0,0,.874,2.8,2.552,2.552,0,0,0,1.862.826l.112,0a3.389,3.389,0,0,0,2.553-1.295,5.755,5.755,0,0,0,1.274-2.851,6.3,6.3,0,0,1-2.669,5,2.778,2.778,0,0,1-2.786.2,2.386,2.386,0,0,1-1.224-2.353.556.556,0,1,0-1.1-.138,3.493,3.493,0,0,0,1.836,3.488,3.78,3.78,0,0,0,1.684.4,4.116,4.116,0,0,0,2.182-.658,7.4,7.4,0,0,0,3.195-5.944C97.822,158.165,97.815,157.773,97.8,157.361Zm-3.354.574c-.1-.066-.022-.276,0-.318a.945.945,0,0,1,.776-.547l.045,0c.071.007.26.024.341.444.009.045.016.09.022.137C95.008,158.017,94.593,158.028,94.449,157.934Z" transform="translate(-86.54 -147.362)" fill="#f5f5f5"/>
    <path id="Path_12769" data-name="Path 12769" d="M73.33,242.215a.558.558,0,0,0-.761.2,1.163,1.163,0,0,1-.094.132c-.006-.014-.012-.029-.018-.046a3.742,3.742,0,0,1,.017-1.887.556.556,0,0,0-1.075-.287,4.79,4.79,0,0,0,.016,2.565c.255.68.647.852.931.875.025,0,.05,0,.075,0a1.461,1.461,0,0,0,1.108-.795A.555.555,0,0,0,73.33,242.215Z" transform="translate(-71.224 -226.526)" fill="#f5f5f5"/>
    <path id="Path_12770" data-name="Path 12770" d="M160.012,149.363a.552.552,0,0,0,.343-.119l2.8-2.2a.533.533,0,0,0,.092-.108,1.393,1.393,0,1,0-1.6-.124l-1.985,1.558a.556.556,0,0,0,.344.994Zm2.526-3.894a.278.278,0,1,1-.278.278A.278.278,0,0,1,162.538,145.469Z" transform="translate(-147.64 -143.765)" fill="#f5f5f5"/>
    <path id="Path_12771" data-name="Path 12771" d="M172.24,177.619a.555.555,0,0,0-.7.352,1.7,1.7,0,0,0,.217,1.641,1.122,1.122,0,0,0,.831.317,2.444,2.444,0,0,0,.768-.142.556.556,0,1,0-.352-1.055,1.939,1.939,0,0,1-.454.1,1.063,1.063,0,0,1,.046-.508A.556.556,0,0,0,172.24,177.619Z" transform="translate(-158 -172.549)" fill="#f5f5f5"/>
    <path id="Path_12772" data-name="Path 12772" d="M222.514,146.386a.557.557,0,0,0,.69-.378l.325-1.113a.556.556,0,1,0-1.068-.312l-.325,1.113A.557.557,0,0,0,222.514,146.386Z" transform="translate(-201.907 -143.616)" fill="#f5f5f5"/>
    <path id="Path_12773" data-name="Path 12773" d="M196.7,142.648a.556.556,0,0,0,.562-.961c-.112-.065-.1-.249-.093-.286a.437.437,0,0,1,.255-.372.556.556,0,0,0-.331-1.063,1.528,1.528,0,0,0-1.03,1.308A1.372,1.372,0,0,0,196.7,142.648Z" transform="translate(-179.341 -139.943)" fill="#f5f5f5"/>
    <path id="Path_12774" data-name="Path 12774" d="M164.339,227.442a.556.556,0,0,0-.1,1.1,1.043,1.043,0,0,1,.1.566.556.556,0,0,0,1.113,0C165.452,227.461,164.385,227.442,164.339,227.442Z" transform="translate(-151.388 -215.725)" fill="#f5f5f5"/>
    <path id="Path_12775" data-name="Path 12775" d="M231.343,199.951a1.3,1.3,0,0,0,.209.017,1.9,1.9,0,0,0,1.316-.658.556.556,0,0,0-.787-.787c-.333.333-.512.34-.558.33-.106-.015-.2-.154-.224-.192a.556.556,0,0,0-.992.5A1.5,1.5,0,0,0,231.343,199.951Z" transform="translate(-208.955 -190.538)" fill="#f5f5f5"/>
    <path id="Path_12776" data-name="Path 12776" d="M301.964,178.45l-.009-.024a.556.556,0,0,0-1.054.356,1.246,1.246,0,0,0,.905.867.921.921,0,0,0,.122.008,1.362,1.362,0,0,0,1.076-.743.556.556,0,1,0-.926-.617A1.707,1.707,0,0,1,301.964,178.45Z" transform="translate(-270.119 -172.946)" fill="#f5f5f5"/>
    <path id="Path_12777" data-name="Path 12777" d="M203.727,162.969c0-2.372-.1-4.6-.249-6.548a28.177,28.177,0,0,1,1.953,3.962.556.556,0,0,0,1.042-.391,36.842,36.842,0,0,0-3.217-6.1c-.3-3-.645-4.9-.651-4.933a.556.556,0,0,0-1.095.2c0,.024.18,1,.389,2.653-.427-.634-.825-1.206-1.158-1.677l.027.009a.556.556,0,1,0,.352-1.055l-1.669-.556a.55.55,0,0,0-.709.373,1.214,1.214,0,0,0-1.161-.279.947.947,0,0,0-.532.99,5.029,5.029,0,0,0,.384,1.576c.328.928.533,1.61.186,1.936a.608.608,0,0,1-.57.2c-.343-.087-.683-.544-.909-1.222a.535.535,0,0,0-.044-.077,9.463,9.463,0,0,0-.17-3.078.556.556,0,0,0-1.091.218c.363,1.817.254,3.3-.292,3.964a1,1,0,0,1-.832.377.32.32,0,0,1-.266-.124c-.439-.506-.437-2.138-.3-3.136a.557.557,0,0,0-.551-.634c-.957,0-1.32,1.089-1.64,2.049-.14.422-.4,1.207-.585,1.289-.337,0-.554-.989-.556-1.669a.556.556,0,0,0-.556-.555h0a.556.556,0,0,0-.555.556c0,1.283.437,2.781,1.669,2.781.917,0,1.289-1,1.6-1.929a3.486,3.486,0,0,0,.631,1.977,1.427,1.427,0,0,0,1.107.508,2.116,2.116,0,0,0,1.692-.784,2.6,2.6,0,0,0,.207-.307,2.076,2.076,0,0,0,1.166.875,1.6,1.6,0,0,0,.393.05,1.765,1.765,0,0,0,1.211-.518,1.635,1.635,0,0,0,.186-.224,1.5,1.5,0,0,0,.411.062,2.251,2.251,0,0,0,1.154-.354.556.556,0,0,0-.6-.938,1.181,1.181,0,0,1-.63.166,5.741,5.741,0,0,0-.421-1.828,7.692,7.692,0,0,1-.288-.93c.046.039.091.079.131.118a.556.556,0,0,0,.786,0,.533.533,0,0,0,.081-.122c.577.794,1.763,2.464,2.983,4.388.233,2.365.437,5.383.437,8.692a.556.556,0,0,0,1.113,0Z" transform="translate(-172.975 -147.357)" fill="#f5f5f5"/>
    <path id="Path_12778" data-name="Path 12778" d="M301.428,150.738a.556.556,0,0,0,1.113,0,5.677,5.677,0,0,0-.615-1.918.556.556,0,1,0-1,.5A4.94,4.94,0,0,1,301.428,150.738Z" transform="translate(-270.119 -147.366)" fill="#f5f5f5"/>
    <path id="Path_12779" data-name="Path 12779" d="M266.516,249.387a.556.556,0,0,0-.747.245,1.593,1.593,0,0,1-.231.33,3.106,3.106,0,0,1,.146-1.029.556.556,0,0,0-.925-.557l-1.113,1.113a.556.556,0,1,0,.787.787l.028-.028a1.15,1.15,0,0,0,.3.585,1.018,1.018,0,0,0,.723.319.968.968,0,0,0,.153-.012,1.812,1.812,0,0,0,1.128-1.007A.555.555,0,0,0,266.516,249.387Z" transform="translate(-237.738 -233.715)" fill="#f5f5f5"/>
    <path id="Path_12780" data-name="Path 12780" d="M165.559,198.136h-3.921q.052-.208.107-.4c1.564-.325,2.493-.83,2.766-1.5a1.244,1.244,0,0,0-.209-1.248,1.379,1.379,0,0,0-1.406-.6c-.79.16-1.495,1.012-2,2.376a6.394,6.394,0,0,0-3.212,1.389,8.624,8.624,0,0,0-1.154-3.7.556.556,0,1,0-.926.617,8.034,8.034,0,0,1,1.019,4.142c0,2.539-2.025,4.45-3.338,4.45-.625,0-.9-.743-1.018-1.37,1.286-.9,2.42-1.944,2.671-2.945a4.425,4.425,0,0,0-.37-3.016l-.041-.1.035.033a.556.556,0,0,0,.786-.787c-.325-.325-.957-.837-1.531-.6a.947.947,0,0,0-.532.99,2.369,2.369,0,0,0,.259.894,3.364,3.364,0,0,1,.314,2.309,4.706,4.706,0,0,1-1.821,2.008.547.547,0,0,0-.421-.2h0a.556.556,0,0,0-.555.556c0,.1,0,.207.011.317a29.269,29.269,0,0,1-3.579,1.958.556.556,0,0,0,.231,1.063.549.549,0,0,0,.23-.05,32.037,32.037,0,0,0,3.322-1.779,2.164,2.164,0,0,0,2.01,1.829,4.725,4.725,0,0,0,3.722-2.721,3.237,3.237,0,0,0,.371.531c1.4,1.615,4.135,1.633,4.251,1.633a.556.556,0,0,0,.04-1.111,1.192,1.192,0,0,1-.694-.337.953.953,0,0,1-.182-.731c.057-.686,2.268-1.2,4.217-1.228a.557.557,0,0,0,.516-.37l.556-1.565a.557.557,0,0,0-.524-.743Zm-2.442-2.657a.2.2,0,0,1,.042-.005c.053,0,.137.026.249.177.021.028.089.125.072.167-.064.157-.448.418-1.248.653C162.584,195.785,162.928,195.517,163.117,195.479Zm-3.36,7.313a3.405,3.405,0,0,1-1.54-.936,2.365,2.365,0,0,1-.494-1.959,1.647,1.647,0,0,1,.116-.236c.783-.072,2.876.237,3.021.836a1.868,1.868,0,0,0-1.176,1.451A2.354,2.354,0,0,0,159.758,202.792Z" transform="translate(-136.997 -186.94)" fill="#f5f5f5"/>
    <path id="Path_12781" data-name="Path 12781" d="M301.139,150.558l-.556-1.669a.556.556,0,0,0-1.082.232c.384,3.839,1.11,11.325,1.11,12.183,0,.771-1.371,2.289-3.587,3.4a.556.556,0,0,0,.5,1c2.024-1.012,4.2-2.818,4.2-4.392,0-.822-.569-6.736-.894-10.058A.557.557,0,0,0,301.139,150.558Z" transform="translate(-266.521 -147.362)" fill="#f5f5f5"/>
    <path id="Path_12782" data-name="Path 12782" d="M352.557,183.646a.556.556,0,0,0,.933-.531,2.805,2.805,0,0,1-.08-1.08.564.564,0,0,0,.578-.477.556.556,0,0,0-.472-.63,1,1,0,0,0-.917.309,1.274,1.274,0,0,0-.28.6l-.644-.644a.556.556,0,0,0-.787.787Z" transform="translate(-313.297 -175.43)" fill="#f5f5f5"/>
    <path id="Path_12783" data-name="Path 12783" d="M358.754,204.953l-2.086,1.5a.556.556,0,1,0,.648.9l2.086-1.495a.556.556,0,1,0-.648-.9Z" transform="translate(-318.242 -196.157)" fill="#f5f5f5"/>
    <path id="Path_12784" data-name="Path 12784" d="M371.612,219.865a.557.557,0,0,0,.049.738,1.543,1.543,0,0,1,.113.8.556.556,0,0,0,.536.576h.02a.556.556,0,0,0,.556-.536c.04-1.135-.331-1.55-.493-1.676A.556.556,0,0,0,371.612,219.865Z" transform="translate(-331.285 -208.976)" fill="#f5f5f5"/>
    <path id="Path_12785" data-name="Path 12785" d="M344.085,162.348a.556.556,0,0,0,.556-.556c0-.821-.042-1.737-.111-2.69a20.3,20.3,0,0,1,1.3,2.423.555.555,0,0,0,.512.337.547.547,0,0,0,.219-.045.556.556,0,0,0,.292-.73,30.609,30.609,0,0,0-2.545-4.388c-.218-2.042-.5-4.043-.725-5.478a.539.539,0,0,0,.347-.086.314.314,0,1,1,.308-.343,2.023,2.023,0,0,1,.2,1.362.557.557,0,0,0,.432.657.577.577,0,0,0,.113.011.557.557,0,0,0,.544-.444,3.152,3.152,0,0,0-.354-2.185.558.558,0,0,0-.768-.171.313.313,0,1,1-.311.342l-.939-1.46a.556.556,0,0,0-1.016.4c.008.044.433,2.485.81,5.427-.426-.6-.853-1.191-1.266-1.753-.067-.842-.135-1.62-.193-2.263a.582.582,0,0,0,.091-.036.556.556,0,0,0,.249-.746l-.556-1.113a.556.556,0,0,0-1.051.3c.066.664.135,1.4.2,2.171-.352-.464-.677-.888-.956-1.248a.557.557,0,0,0-.114-.92l-1.113-.556a.556.556,0,0,0-.683.845c.03.037,1.4,1.754,3.038,3.971.284,3.676.473,7.5.206,8.3-.049.147-.134.319-.214.325-.336.047-1.139-.705-1.542-1.511a.774.774,0,0,0-.745-.5c-.6.037-.831.695-1.255,1.889a7.831,7.831,0,0,1-1.106,2.355,6.322,6.322,0,0,1-.692-2.19.553.553,0,0,0,1.075-.188c0-.83-.58-7.148-.9-10.61a.556.556,0,0,0,.319-.691l-.556-1.669a.556.556,0,0,0-1.082.229c.378,3.969,1.087,11.634,1.109,12.692,0-.01,0-.019,0-.028a.556.556,0,1,0-1.1.158c.162,1.137.578,3.092,1.534,3.411a.93.93,0,0,0,.3.048,1.093,1.093,0,0,0,.783-.363,8.022,8.022,0,0,0,1.378-2.779c.082-.23.178-.5.27-.737.51.745,1.4,1.673,2.3,1.6a1.365,1.365,0,0,0,1.191-1.083c.3-.887.179-3.982-.02-6.945.469.657.938,1.329,1.385,1.994.174,1.666.3,3.335.3,4.706A.556.556,0,0,0,344.085,162.348Z" transform="translate(-298.903 -147.363)" fill="#f5f5f5"/>
    <path id="Path_12786" data-name="Path 12786" d="M410.07,159.875c-.394-2.936-.943-6.337-1.291-8.424a.548.548,0,0,0,.466-.1.556.556,0,0,0,.1-.78l-1.008-1.321a.556.556,0,0,0-.99.433c.01.057,1,5.768,1.616,10.338a5.214,5.214,0,0,1-.916,4.174,2.462,2.462,0,0,1-2.041.761.556.556,0,0,0-.07,1.111c.094.006.187.009.278.009a3.511,3.511,0,0,0,2.646-1.121A6.215,6.215,0,0,0,410.07,159.875Z" transform="translate(-360.667 -147.815)" fill="#f5f5f5"/>
    <path id="Path_12787" data-name="Path 12787" d="M393.458,256.206a.564.564,0,0,0,.027.782.236.236,0,0,1,.067.115.26.26,0,0,1-.084.124.556.556,0,1,0,.787.787,1.262,1.262,0,0,0,.41-.949,1.324,1.324,0,0,0-.437-.906A.551.551,0,0,0,393.458,256.206Z" transform="translate(-350.175 -240.479)" fill="#f5f5f5"/>
    <path id="Path_12788" data-name="Path 12788" d="M156.731,341.291h-3.894v-.556a.556.556,0,0,0-1.113,0v.556H122.24a7.765,7.765,0,0,0,5.007,1.669h24.477v1.113a.556.556,0,0,0,.556.556h4.45a1.669,1.669,0,0,0,0-3.338Zm0,2.225h-3.894v-.556h4.45l-.1-.3a.54.54,0,0,1,.1.3A.557.557,0,0,1,156.731,343.516Z" transform="translate(-115.408 -313.364)" fill="#f5f5f5"/>
  </g>
</svg>
