<svg xmlns="http://www.w3.org/2000/svg" width="22.44" height="21.239" viewBox="0 0 22.44 21.239">
  <g id="attach" transform="translate(-0.001 -13.707)">
    <g id="Group_3561" data-name="Group 3561" transform="translate(0.001 13.707)">
      <path id="Path_12717" data-name="Path 12717" d="M20.34,15.8a7.182,7.182,0,0,0-10.145,0L1.5,24.5a5.124,5.124,0,0,0,7.247,7.246l7.971-7.971a3.074,3.074,0,1,0-4.348-4.348L7.156,24.64a1.025,1.025,0,1,0,1.449,1.449l5.213-5.213a1.025,1.025,0,1,1,1.449,1.449L7.3,30.3a3.074,3.074,0,0,1-4.348-4.348l8.7-8.7A5.124,5.124,0,1,1,18.89,24.5l-8.7,8.7a1.025,1.025,0,0,0,1.449,1.449l8.7-8.7a7.173,7.173,0,0,0,0-10.145Z" transform="translate(-0.001 -13.707)" fill="#929292"/>
    </g>
  </g>
</svg>
