<svg id="camera_1_" data-name="camera (1)" xmlns="http://www.w3.org/2000/svg" width="23.757" height="21.381" viewBox="0 0 23.757 21.381">
  <g id="camera-alt" transform="translate(0 0)">
    <circle id="Ellipse_1116" data-name="Ellipse 1116" cx="3.801" cy="3.801" r="3.801" transform="translate(8.077 8.077)" fill="#fa2a3d"/>
    <path id="Path_3044" data-name="Path 3044" d="M8.315,25.5,6.177,27.876h-3.8A2.383,2.383,0,0,0,0,30.251V44.506a2.383,2.383,0,0,0,2.376,2.376H21.381a2.383,2.383,0,0,0,2.376-2.376V30.251a2.383,2.383,0,0,0-2.376-2.376h-3.8L15.442,25.5Zm3.564,17.818a5.939,5.939,0,1,1,5.939-5.939A5.882,5.882,0,0,1,11.879,43.318Z" transform="translate(0 -25.5)" fill="#fa2a3d"/>
  </g>
</svg>
