<svg xmlns="http://www.w3.org/2000/svg" width="36.471" height="33.433" viewBox="0 0 36.471 33.433">
  <g id="attach-image" transform="translate(0 -0.492)">
    <path id="Path_12718" data-name="Path 12718" d="M26.9,191.441a3.446,3.446,0,0,1-.871-.112l-23.5-6.293a3.451,3.451,0,0,1-2.419-4.187L2.7,170.942a1.14,1.14,0,0,1,2.205.576l-2.584,9.908a1.16,1.16,0,0,0,.812,1.409l23.487,6.29a1.133,1.133,0,0,0,1.384-.8l.8-3.237a1.14,1.14,0,0,1,2.213.547l-.805,3.252a3.423,3.423,0,0,1-3.307,2.553Zm0,0" transform="translate(0 -157.516)" fill="#b9b8b8"/>
    <path id="Path_12719" data-name="Path 12719" d="M112.294,24.807H88.739a3.423,3.423,0,0,1-3.419-3.419V3.911A3.423,3.423,0,0,1,88.739.492h23.555a3.423,3.423,0,0,1,3.419,3.419V21.388A3.423,3.423,0,0,1,112.294,24.807ZM88.739,2.772a1.14,1.14,0,0,0-1.14,1.14V21.388a1.14,1.14,0,0,0,1.14,1.14h23.555a1.14,1.14,0,0,0,1.14-1.14V3.911a1.14,1.14,0,0,0-1.14-1.14Zm0,0" transform="translate(-79.242)" fill="#b9b8b8"/>
    <path id="Path_12720" data-name="Path 12720" d="M152.359,70.571a3.039,3.039,0,1,1,3.039-3.039A3.043,3.043,0,0,1,152.359,70.571Zm0-3.8a.76.76,0,1,0,.76.76A.76.76,0,0,0,152.359,66.772Zm0,0" transform="translate(-138.683 -59.441)" fill="#b9b8b8"/>
    <path id="Path_12721" data-name="Path 12721" d="M86.893,128.2a1.14,1.14,0,0,1-.805-1.947l6.869-6.869a2.667,2.667,0,0,1,3.769,0l1.837,1.837,5.644-6.775a2.659,2.659,0,0,1,2.03-.959,2.444,2.444,0,0,1,2.038.935l7.565,8.826a1.14,1.14,0,0,1-1.731,1.485l-7.568-8.829a.456.456,0,0,0-.292-.136.382.382,0,0,0-.292.138l-6.443,7.735a1.138,1.138,0,0,1-.824.409,1.117,1.117,0,0,1-.857-.333L95.113,121a.329.329,0,0,0-.546,0L87.7,127.866a1.132,1.132,0,0,1-.806.334Zm0,0" transform="translate(-79.645 -104.943)" fill="#b9b8b8"/>
  </g>
</svg>
