<svg xmlns="http://www.w3.org/2000/svg" width="18.038" height="22.95" viewBox="0 0 18.038 22.95">
  <g id="dustbin-2" transform="translate(-54.798)">
    <path id="Path_13869" data-name="Path 13869" d="M72.161,6.5a.672.672,0,0,0,.626-.92,4.265,4.265,0,0,0-3.949-2.666h-.825A3.57,3.57,0,0,0,64.534,0H63.1a3.57,3.57,0,0,0-3.478,2.914H58.8A4.265,4.265,0,0,0,54.847,5.58a.672.672,0,0,0,.626.92ZM63.1,1.345h1.434a2.206,2.206,0,0,1,2.1,1.569H61A2.206,2.206,0,0,1,63.1,1.345Z" fill="#fa2a3d"/>
    <path id="Path_13870" data-name="Path 13870" d="M90.973,188.232a2.024,2.024,0,0,0,2.012,1.874h8.97a2.024,2.024,0,0,0,2.012-1.874L104.91,175H90.031Zm8.336-9.635a.672.672,0,0,1,1.343.067l-.359,7.172a.672.672,0,0,1-1.343-.067Zm-4.382-.638a.673.673,0,0,1,.705.638l.359,7.172a.672.672,0,0,1-1.343.067l-.359-7.172A.672.672,0,0,1,94.927,177.959Z" transform="translate(-33.654 -167.156)" fill="#fa2a3d"/>
  </g>
</svg>
