<svg xmlns="http://www.w3.org/2000/svg" width="68.981" height="61.489" viewBox="0 0 68.981 61.489">
  <g id="united-states-of-america" transform="translate(0 -27.803)">
    <path id="Path_12737" data-name="Path 12737" d="M62.907,27.8H6.074A6.081,6.081,0,0,0,0,33.877V83.218a6.081,6.081,0,0,0,6.074,6.074H62.907a6.081,6.081,0,0,0,6.074-6.074V33.877A6.081,6.081,0,0,0,62.907,27.8Z" transform="translate(0 0)" fill="#f0f9ff"/>
    <path id="Path_12738" data-name="Path 12738" d="M284.416,27.8H256V89.292h28.416a6.081,6.081,0,0,0,6.074-6.074V33.877a6.081,6.081,0,0,0-6.074-6.074Z" transform="translate(-221.51 0)" fill="#cee5f5"/>
    <path id="Path_12739" data-name="Path 12739" d="M0,374.1H68.981v5.218H0Z" transform="translate(0 -299.637)" fill="#f40055"/>
    <path id="Path_12740" data-name="Path 12740" d="M0,305.365H68.981v5.218H0Z" transform="translate(0 -240.166)" fill="#f40055"/>
    <path id="Path_12741" data-name="Path 12741" d="M6.217,448.4H63.05a6.081,6.081,0,0,0,6.052-5.574H.165A6.081,6.081,0,0,0,6.217,448.4Z" transform="translate(-0.143 -359.107)" fill="#f40055"/>
    <g id="Group_3566" data-name="Group 3566" transform="translate(32.771 27.803)">
      <path id="Path_12742" data-name="Path 12742" d="M243.24,236.636h36.21v5.218H243.24Z" transform="translate(-243.24 -208.5)" fill="#c20044"/>
      <path id="Path_12743" data-name="Path 12743" d="M256,374.1h34.49v5.218H256Z" transform="translate(-254.281 -327.44)" fill="#c20044"/>
      <path id="Path_12744" data-name="Path 12744" d="M243.24,33.377h36.187a6.081,6.081,0,0,0-6.052-5.574H243.24Z" transform="translate(-243.24 -27.803)" fill="#c20044"/>
      <path id="Path_12745" data-name="Path 12745" d="M243.24,167.906h36.21v5.218H243.24Z" transform="translate(-243.24 -149.03)" fill="#c20044"/>
      <path id="Path_12746" data-name="Path 12746" d="M256,305.365h34.49v5.218H256Z" transform="translate(-254.281 -267.969)" fill="#c20044"/>
      <path id="Path_12747" data-name="Path 12747" d="M256,442.825V448.4h28.416a6.081,6.081,0,0,0,6.052-5.574Z" transform="translate(-254.281 -386.91)" fill="#c20044"/>
      <path id="Path_12748" data-name="Path 12748" d="M243.24,99.177h36.21v5.218H243.24Z" transform="translate(-243.24 -89.561)" fill="#c20044"/>
    </g>
    <path id="Path_12749" data-name="Path 12749" d="M34.49,27.8H6.063A6.07,6.07,0,0,0,0,33.866V61.157H34.49Z" transform="translate(0 0)" fill="#406bd4"/>
    <path id="Path_12750" data-name="Path 12750" d="M179.706,169.653a2.021,2.021,0,0,1,0,4.02,2.021,2.021,0,0,1-4.02,0,2.021,2.021,0,0,1,0-4.02,2.021,2.021,0,0,1,4.02,0Z" transform="translate(-150.447 -121.171)" fill="#fff"/>
    <path id="Path_12751" data-name="Path 12751" d="M25.383,171.664a2.021,2.021,0,0,1,1.812-2.01,2.021,2.021,0,0,1,4.02,0,2.021,2.021,0,0,1,0,4.02,2.021,2.021,0,0,1-4.02,0,2.021,2.021,0,0,1-1.812-2.01Z" transform="translate(-21.963 -121.171)" fill="#fff"/>
    <path id="Path_12752" data-name="Path 12752" d="M99.628,171.664a2.021,2.021,0,0,1,1.812-2.01,2.021,2.021,0,0,1,4.02,0,2.021,2.021,0,0,1,0,4.02,2.021,2.021,0,0,1-4.02,0A2.021,2.021,0,0,1,99.628,171.664Z" transform="translate(-86.205 -121.171)" fill="#fff"/>
    <path id="Path_12753" data-name="Path 12753" d="M107.273,82.407a2.021,2.021,0,0,1-1.812,2.01,2.021,2.021,0,0,1-4.02,0,2.021,2.021,0,0,1,0-4.02,2.021,2.021,0,0,1,4.02,0,2.021,2.021,0,0,1,1.812,2.01Z" transform="translate(-86.205 -43.939)" fill="#fff"/>
    <path id="Path_12754" data-name="Path 12754" d="M33.029,82.407a2.021,2.021,0,0,1-1.812,2.01,2.021,2.021,0,0,1-4.02,0,2.021,2.021,0,0,1,0-4.02,2.021,2.021,0,0,1,4.02,0,2.021,2.021,0,0,1,1.812,2.01Z" transform="translate(-21.964 -43.939)" fill="#fff"/>
    <path id="Path_12755" data-name="Path 12755" d="M181.518,82.407a2.021,2.021,0,0,1-1.812,2.01,2.021,2.021,0,0,1-4.02,0,2.021,2.021,0,0,1,0-4.02,2.021,2.021,0,0,1,4.02,0,2.021,2.021,0,0,1,1.812,2.01Z" transform="translate(-150.447 -43.939)" fill="#fff"/>
    <path id="Path_12756" data-name="Path 12756" d="M34.49,27.8H6.063A6.07,6.07,0,0,0,0,33.866V61.157H34.49Z" transform="translate(0 0)" fill="#406bd4"/>
    <path id="Path_12757" data-name="Path 12757" d="M179.706,169.653a2.021,2.021,0,0,1,0,4.02,2.021,2.021,0,0,1-4.02,0,2.021,2.021,0,0,1,0-4.02,2.021,2.021,0,0,1,4.02,0Z" transform="translate(-150.447 -121.171)" fill="#fff"/>
    <path id="Path_12758" data-name="Path 12758" d="M25.383,171.664a2.021,2.021,0,0,1,1.812-2.01,2.021,2.021,0,0,1,4.02,0,2.021,2.021,0,0,1,0,4.02,2.021,2.021,0,0,1-4.02,0,2.021,2.021,0,0,1-1.812-2.01Z" transform="translate(-21.963 -121.171)" fill="#fff"/>
    <path id="Path_12759" data-name="Path 12759" d="M99.628,171.664a2.021,2.021,0,0,1,1.812-2.01,2.021,2.021,0,0,1,4.02,0,2.021,2.021,0,0,1,0,4.02,2.021,2.021,0,0,1-4.02,0A2.021,2.021,0,0,1,99.628,171.664Z" transform="translate(-86.205 -121.171)" fill="#fff"/>
    <path id="Path_12760" data-name="Path 12760" d="M107.273,82.407a2.021,2.021,0,0,1-1.812,2.01,2.021,2.021,0,0,1-4.02,0,2.021,2.021,0,0,1,0-4.02,2.021,2.021,0,0,1,4.02,0,2.021,2.021,0,0,1,1.812,2.01Z" transform="translate(-86.205 -43.939)" fill="#fff"/>
    <path id="Path_12761" data-name="Path 12761" d="M33.029,82.407a2.021,2.021,0,0,1-1.812,2.01,2.021,2.021,0,0,1-4.02,0,2.021,2.021,0,0,1,0-4.02,2.021,2.021,0,0,1,4.02,0,2.021,2.021,0,0,1,1.812,2.01Z" transform="translate(-21.964 -43.939)" fill="#fff"/>
    <path id="Path_12762" data-name="Path 12762" d="M181.518,82.407a2.021,2.021,0,0,1-1.812,2.01,2.021,2.021,0,0,1-4.02,0,2.021,2.021,0,0,1,0-4.02,2.021,2.021,0,0,1,4.02,0,2.021,2.021,0,0,1,1.812,2.01Z" transform="translate(-150.447 -43.939)" fill="#fff"/>
  </g>
</svg>
