<svg xmlns="http://www.w3.org/2000/svg" width="165.451" height="322.799" viewBox="0 0 165.451 322.799">
  <g id="Teya-logo-mobile" transform="translate(-131 -266.309)">
    <path id="WELCOME_TO" data-name="WELCOME TO" d="M13.553,0H11.268L9.088-7.664q-.141-.5-.352-1.446t-.255-1.314q-.088.563-.286,1.459t-.33,1.336L5.739,0H3.454L1.793-6.434.105-12.85H2.25L4.087-5.361A32.363,32.363,0,0,1,4.7-2.18q.1-.747.29-1.67t.352-1.494L7.436-12.85H9.519l2.145,7.541a28.192,28.192,0,0,1,.65,3.129,22.939,22.939,0,0,1,.633-3.2l1.828-7.471H16.9ZM25.989,0H18.721V-12.85h7.269v1.775H20.821v3.5h4.843v1.758H20.821v4.034h5.168Zm2.777,0V-12.85h2.1V-1.8h5.44V0ZM43.989-11.232a3.462,3.462,0,0,0-2.848,1.283A5.485,5.485,0,0,0,40.1-6.407a5.522,5.522,0,0,0,1,3.577,3.523,3.523,0,0,0,2.887,1.213,7.586,7.586,0,0,0,1.582-.163q.765-.163,1.591-.417V-.4a9.645,9.645,0,0,1-3.428.571A5.479,5.479,0,0,1,39.4-1.534,7.151,7.151,0,0,1,37.89-6.425a7.9,7.9,0,0,1,.734-3.507,5.238,5.238,0,0,1,2.123-2.3,6.42,6.42,0,0,1,3.261-.8,8.092,8.092,0,0,1,3.639.826l-.756,1.749A11.285,11.285,0,0,0,45.514-11,4.956,4.956,0,0,0,43.989-11.232Zm17.35,4.79A7.029,7.029,0,0,1,59.77-1.564,5.674,5.674,0,0,1,55.327.176a5.713,5.713,0,0,1-4.469-1.727A7.073,7.073,0,0,1,49.3-6.46a6.963,6.963,0,0,1,1.569-4.887,5.781,5.781,0,0,1,4.478-1.705,5.664,5.664,0,0,1,4.43,1.731A7.022,7.022,0,0,1,61.339-6.442Zm-9.809,0a5.762,5.762,0,0,0,.958,3.6,3.382,3.382,0,0,0,2.839,1.226A3.376,3.376,0,0,0,58.153-2.83a5.772,5.772,0,0,0,.954-3.612,5.784,5.784,0,0,0-.945-3.586,3.34,3.34,0,0,0-2.817-1.222,3.41,3.41,0,0,0-2.852,1.222A5.706,5.706,0,0,0,51.53-6.442ZM69.653,0,65.927-10.731h-.07q.149,2.391.149,4.482V0H64.1V-12.85h2.962L70.629-2.628h.053L74.355-12.85h2.971V0H75.3V-6.354q0-.958.048-2.5t.083-1.863h-.07L71.508,0ZM87.979,0H80.71V-12.85h7.269v1.775H82.811v3.5h4.843v1.758H82.811v4.034h5.168ZM99.87,0h-2.1V-11.048H93.99v-1.8h9.659v1.8H99.87Zm17.156-6.442a7.029,7.029,0,0,1-1.569,4.878,5.674,5.674,0,0,1-4.443,1.74,5.713,5.713,0,0,1-4.469-1.727,7.073,7.073,0,0,1-1.56-4.909,6.963,6.963,0,0,1,1.569-4.887,5.781,5.781,0,0,1,4.478-1.705,5.664,5.664,0,0,1,4.43,1.731A7.022,7.022,0,0,1,117.026-6.442Zm-9.809,0a5.762,5.762,0,0,0,.958,3.6,3.382,3.382,0,0,0,2.839,1.226A3.376,3.376,0,0,0,113.84-2.83a5.772,5.772,0,0,0,.954-3.612,5.784,5.784,0,0,0-.945-3.586,3.34,3.34,0,0,0-2.817-1.222,3.41,3.41,0,0,0-2.852,1.222A5.706,5.706,0,0,0,107.218-6.442Z" transform="translate(154.895 489)" fill="#f8f8fa"/>
    <path id="TEYA" d="M24.836,0H14.543V-39.977H1.361v-8.566H38.018v8.566H24.836ZM73.445,0H45.488V-48.543H73.445v8.434H55.781v10.658H72.217v8.434H55.781V-8.5H73.445ZM98.68-28.555l10.127-19.988H119.9l-16.1,29.65V0H93.566V-18.561l-16.1-29.982H88.619ZM155.723,0,152.2-11.555h-17.7L130.986,0H119.9l17.133-48.742h12.584L166.813,0Zm-5.977-20.187q-4.881-15.705-5.5-17.764t-.88-3.254q-1.1,4.25-6.275,21.018Z" transform="translate(129.639 567)" fill="#f8f8fa"/>
    <path id="EDUCATIONAL_HELP_PLATFORM" data-name="EDUCATIONAL HELP PLATFORM" d="M5.479,0H1.037V-7.853H5.479v1.085H2.32V-4.63H5.28v1.074H2.32V-1.09H5.479Zm8.083-4a3.913,3.913,0,0,1-1.08,2.973A4.336,4.336,0,0,1,9.373,0h-2.2V-7.853H9.6a4.017,4.017,0,0,1,2.917,1.01A3.773,3.773,0,0,1,13.562-4Zm-1.354.043q0-2.82-2.637-2.82H8.459v5.7h.913Q12.208-1.08,12.208-3.958Zm9.2-3.894v5.081a3.013,3.013,0,0,1-.373,1.523,2.487,2.487,0,0,1-1.08,1,3.752,3.752,0,0,1-1.689.352A3.16,3.16,0,0,1,15.99-.666a2.8,2.8,0,0,1-.811-2.127v-5.06h1.289v4.968a1.985,1.985,0,0,0,.451,1.434A1.86,1.86,0,0,0,18.3-.988q1.815,0,1.815-1.907V-7.853Zm5.35.988a2.116,2.116,0,0,0-1.74.784,3.352,3.352,0,0,0-.634,2.165,3.375,3.375,0,0,0,.61,2.186,2.153,2.153,0,0,0,1.764.741,4.636,4.636,0,0,0,.967-.1q.467-.1.972-.255v1.1A5.894,5.894,0,0,1,26.6.107,3.348,3.348,0,0,1,23.95-.937a4.37,4.37,0,0,1-.924-2.989,4.83,4.83,0,0,1,.448-2.143,3.2,3.2,0,0,1,1.3-1.407,3.923,3.923,0,0,1,1.993-.489,4.945,4.945,0,0,1,2.224.5l-.462,1.069a6.9,6.9,0,0,0-.841-.33A3.028,3.028,0,0,0,26.753-6.864ZM35.256,0l-.784-2.181h-3L30.7,0H29.348l2.938-7.885h1.4L36.62,0ZM34.133-3.287,33.4-5.425q-.081-.215-.223-.677t-.2-.677a12.037,12.037,0,0,1-.424,1.445l-.709,2.046ZM40.369,0H39.085V-6.751h-2.31v-1.1h5.9v1.1h-2.31Zm3.513,0V-7.853h1.284V0ZM54.21-3.937a4.3,4.3,0,0,1-.959,2.981A3.467,3.467,0,0,1,50.537.107,3.491,3.491,0,0,1,47.805-.948a4.322,4.322,0,0,1-.953-3,4.255,4.255,0,0,1,.959-2.986,3.533,3.533,0,0,1,2.737-1.042,3.461,3.461,0,0,1,2.707,1.058A4.291,4.291,0,0,1,54.21-3.937Zm-5.994,0a3.521,3.521,0,0,0,.585,2.2,2.067,2.067,0,0,0,1.735.749,2.063,2.063,0,0,0,1.727-.741,3.527,3.527,0,0,0,.583-2.208,3.535,3.535,0,0,0-.577-2.191,2.041,2.041,0,0,0-1.721-.747,2.084,2.084,0,0,0-1.743.747A3.487,3.487,0,0,0,48.216-3.937ZM62.439,0H60.865L57-6.257H56.96l.027.349q.075,1,.075,1.826V0H55.9V-7.853h1.558l3.851,6.225h.032q-.011-.124-.043-.9t-.032-1.211V-7.853h1.176Zm6.945,0L68.6-2.181h-3L64.829,0H63.476l2.938-7.885h1.4L70.748,0ZM68.261-3.287l-.736-2.138Q67.445-5.64,67.3-6.1t-.2-.677a12.038,12.038,0,0,1-.424,1.445l-.709,2.046ZM71.785,0V-7.853h1.284V-1.1h3.325V0ZM86.8,0H85.508V-3.54h-3.62V0H80.6V-7.853h1.284v3.212h3.62V-7.853H86.8Zm6.51,0H88.865V-7.853h4.442v1.085H90.148V-4.63h2.959v1.074H90.148V-1.09h3.158ZM95,0V-7.853h1.284V-1.1h3.325V0Zm11.161-5.479a2.29,2.29,0,0,1-.806,1.885,3.549,3.549,0,0,1-2.293.655h-.816V0h-1.284V-7.853h2.261a3.421,3.421,0,0,1,2.2.6A2.159,2.159,0,0,1,106.165-5.479ZM102.25-4.018h.682a2.444,2.444,0,0,0,1.45-.344,1.251,1.251,0,0,0,.462-1.074,1.219,1.219,0,0,0-.414-1.01,2.043,2.043,0,0,0-1.289-.333h-.892ZM115.79-5.479a2.29,2.29,0,0,1-.806,1.885,3.549,3.549,0,0,1-2.293.655h-.816V0h-1.284V-7.853h2.261a3.421,3.421,0,0,1,2.2.6A2.159,2.159,0,0,1,115.79-5.479Zm-3.916,1.461h.682a2.444,2.444,0,0,0,1.45-.344,1.251,1.251,0,0,0,.462-1.074,1.219,1.219,0,0,0-.414-1.01,2.043,2.043,0,0,0-1.289-.333h-.892ZM117.358,0V-7.853h1.284V-1.1h3.325V0Zm10.833,0-.784-2.181h-3L123.637,0h-1.354l2.938-7.885h1.4L129.556,0Zm-1.123-3.287-.736-2.138q-.081-.215-.223-.677t-.2-.677a12.038,12.038,0,0,1-.424,1.445l-.709,2.046ZM133.305,0h-1.284V-6.751h-2.31v-1.1h5.9v1.1h-2.31Zm4.786,0h-1.273V-7.853h4.431v1.085h-3.158v2.455h2.959v1.09h-2.959Zm11.553-3.937a4.3,4.3,0,0,1-.959,2.981A3.467,3.467,0,0,1,145.97.107a3.491,3.491,0,0,1-2.731-1.055,4.322,4.322,0,0,1-.953-3,4.255,4.255,0,0,1,.959-2.986,3.533,3.533,0,0,1,2.737-1.042,3.461,3.461,0,0,1,2.707,1.058A4.291,4.291,0,0,1,149.644-3.937Zm-5.994,0a3.521,3.521,0,0,0,.585,2.2,2.067,2.067,0,0,0,1.735.749,2.063,2.063,0,0,0,1.727-.741,3.527,3.527,0,0,0,.583-2.208,3.535,3.535,0,0,0-.577-2.191,2.041,2.041,0,0,0-1.721-.747,2.084,2.084,0,0,0-1.743.747A3.487,3.487,0,0,0,143.65-3.937Zm8.964-.263h.892a2.036,2.036,0,0,0,1.3-.333,1.208,1.208,0,0,0,.4-.988,1.064,1.064,0,0,0-.435-.956,2.385,2.385,0,0,0-1.311-.29h-.849Zm0,1.063V0h-1.284V-7.853h2.218a3.645,3.645,0,0,1,2.25.569,2.044,2.044,0,0,1,.73,1.719A2.148,2.148,0,0,1,155-3.475L157.223,0h-1.461l-1.88-3.137ZM161.756,0l-2.277-6.558h-.043q.091,1.461.091,2.739V0h-1.166V-7.853h1.81l2.181,6.247h.032l2.245-6.247h1.815V0h-1.235V-3.883q0-.585.03-1.525t.051-1.139h-.043L162.889,0Z" transform="translate(129.963 589)" fill="#f8f8fa"/>
    <g id="Group_3969" transform="translate(143 266.309)">
      <path id="Subtraction_1" data-name="Subtraction 1" d="M416.948-144.836a69.8,69.8,0,0,1-27.339-5.52,70,70,0,0,1-22.325-15.052,70,70,0,0,1-15.052-22.326,69.8,69.8,0,0,1-5.52-27.339,69.8,69.8,0,0,1,5.52-27.339,70,70,0,0,1,15.052-22.325,70,70,0,0,1,22.325-15.052,69.8,69.8,0,0,1,27.339-5.52,69.8,69.8,0,0,1,27.339,5.52,70,70,0,0,1,22.326,15.052,70,70,0,0,1,15.052,22.325,69.8,69.8,0,0,1,5.52,27.339,69.8,69.8,0,0,1-5.52,27.339,70,70,0,0,1-15.052,22.326,70,70,0,0,1-22.326,15.052A69.8,69.8,0,0,1,416.948-144.836Zm0-111.877a41.687,41.687,0,0,0-41.64,41.64,41.688,41.688,0,0,0,41.64,41.641,41.688,41.688,0,0,0,41.64-41.641A41.687,41.687,0,0,0,416.948-256.713Z" transform="translate(-346.712 285.309)" fill="#fff"/>
      <path id="Path_12993" d="M363.256,403.068a14.33,14.33,0,1,1-1.171,20.234,14.657,14.657,0,0,1-3.679-10.366,15.077,15.077,0,0,1,4.85-9.868Z" transform="translate(-256.897 -375.812)" fill="#fff"/>
      <path id="Path_12994" d="M364.453,404.9a9.807,9.807,0,0,1,13.88.838,9.96,9.96,0,0,1-.838,13.88,9.806,9.806,0,0,1-13.88-.838,10.245,10.245,0,0,1-2.508-7.191A9.612,9.612,0,0,1,364.453,404.9Z" transform="translate(-255.085 -373.797)" fill="#04d1ef"/>
      <path id="Path_12995" d="M335.358,421.341a18.359,18.359,0,1,1-1.505,25.921,18.359,18.359,0,0,1,1.505-25.921Z" transform="translate(-276.493 -364.149)" fill="#fff"/>
    </g>
  </g>
</svg>
